<?xml version="1.0" encoding="utf-8"?>
<svg xmlns="http://www.w3.org/2000/svg" width="1758" height="1571" xmlns:bx="https://boxy-svg.com" viewBox="0 0 1758 1571"><defs><bx:export><bx:file format="svg"/></bx:export></defs><path style="fill:#cecace; stroke:none;" d="M645 546L646 546C646 530.252 643.135 504.638 660 496C662.766 461.252 657.229 429.829 650 396L641.542 384.478L627 368C648.196 376.034 659.666 407.013 661 428L662 428L660 413C667.227 418.344 682.336 425.195 685 434L692 437C687.986 419.448 676.357 400.555 662.961 388.424C654.428 380.698 641.712 374.087 635 365C651.405 370.192 666.952 383.064 677.821 395.921C682.703 401.695 687.624 415.492 696.911 414.801C702.706 414.37 704.792 407.433 706.72 403C712.553 389.587 718.76 376.786 726.004 364C735.965 346.419 752.503 329.621 759.251 310.575C769.219 282.438 774.963 248.943 772.911 219C772.078 206.852 767.547 194.979 767 183L772 184L774 182L773 179C794.242 180.529 804.191 216.946 807.804 234C809.234 240.748 809.86 255.097 817.26 258.272C828.504 263.097 840.648 243.21 848.41 237.542C868.345 222.984 888.679 207.423 905.08 188.741C909.766 183.404 915.954 177.531 919.88 171.7C924.134 165.38 928.042 156.75 935 153L933 160L936 156L937 156L937 167L938 167C938.001 161.98 937.186 156.812 942 154C942 178.353 938.338 200.138 930.239 223C928.59 227.657 922.437 241.981 927.603 245.968C933.188 250.279 941.927 238.93 944.995 235.576C957.058 222.39 959.065 203.698 969.858 190.043C981.242 175.641 988.877 191.453 988.996 203C989.058 209.038 988.004 214.954 988 221L990 221C990.274 214.628 991 208.413 991 202C990.999 191.238 984.114 170.375 970.329 184.225C960.599 193.999 957.609 210.494 950.135 222C947.885 225.465 941.339 236.174 936.149 233.963C929.707 231.218 936.144 216.531 937.421 212C942.192 195.069 946 177.641 946 160C946 154.65 947.615 145.377 941.867 142.333C931.153 136.66 919.438 163.688 913.833 170C893.958 192.38 872.633 212.231 849 230.576C842.808 235.383 832.988 247.574 825 248.422C816.595 249.314 814.206 236.821 812.768 231C808.638 214.287 801.067 196.028 789.561 183.04C784.911 177.791 775.201 171.467 768.109 176.024C761.861 180.038 764.416 188.161 765.873 194C770.036 210.674 771.738 227.849 769.714 245C766.991 268.078 763.653 291.362 754.537 313C748.786 326.651 738.397 338.511 730.53 351C720.558 366.829 713.15 383.7 704.201 400C695.804 415.293 687.761 404.829 680.373 395C670.027 381.234 656.404 368.328 641 360.389C635.746 357.681 625.583 354.468 620.228 358.603C616.159 361.746 616.911 367.188 619.653 370.911C626.901 380.752 637.043 386.627 642.73 398C654.457 421.45 661.119 456.926 656.384 483C654.815 491.64 648.499 497.064 645.559 505C641.592 515.71 641.779 535.103 645 546z"/><path style="fill:#bcbabc; stroke:none;" d="M932 153C911.117 186.829 879.558 214.467 847.573 237.542C840.579 242.587 826.442 264.467 816.46 257.347C810.457 253.065 810.357 243.47 808.731 237C804.286 219.321 796.28 179.737 773 179C777.059 186.643 786.008 192.261 790.752 200.09C804.413 222.639 810 249.846 810 276C821.287 272.561 833.078 256.126 842 248.286C865.991 227.203 890.599 208.631 912.561 185.171C920.642 176.538 933.453 165.316 935 153L932 153M939 154L927.573 213L912 253L915.893 260.682L927 263C943.827 246.173 956.682 231.029 967.741 210C971.454 202.939 973.59 188.596 982 186C982 210.47 981.74 234.743 973.312 257.999C955.892 306.067 916.215 349.744 877.001 381.572C865.898 390.583 854.451 398.61 843.089 407.201C837.145 411.697 831.246 417.566 824 419.987C818.324 421.884 811.954 416.327 806 416.04C792.976 415.412 770.264 428.667 765.287 441C761.128 451.307 771.745 465.088 772 476L775 476C776.072 492.86 789.575 509.998 786.768 527C783.419 547.293 763.193 560.529 754.584 578C745.13 597.187 743.433 616.83 737.516 637C732.561 653.893 725.324 671.43 723 689L699.014 675.272L643.039 652.886L620 646C626.704 630.955 642.069 619.435 647.44 603.83C650.25 595.664 647.901 583.606 648.004 575C648.233 555.708 648.494 534.032 651.591 515C653.049 506.041 661.495 503.86 664.397 496C670.302 480 665.793 456.328 663.428 440C660.188 417.625 654.023 374.349 627 368L641.542 385.304L650 396L658.83 438L660 496C642.497 501.479 646 532.044 646 546L644 545C643.904 556.611 641.83 568.403 642.054 580C642.197 587.397 645.085 596.787 642.258 603.961C637.168 616.878 623.615 626.203 615.916 637.205C609.288 646.677 603.551 661.108 592.925 666.879C582.137 672.738 575.403 667.19 564.83 665.259C556.147 663.673 545.818 663.486 537 664.089C516.21 665.513 494.933 671.904 475 677.876C467.005 680.271 460.401 684.914 452 686L452 689C460.177 688.931 465.805 685.304 473.285 682.75C485.448 678.598 501.386 674.022 514 671.478C531.182 668.014 547.652 667.389 565 670.286C572.683 671.569 581.291 676.955 588.961 676.667C594.409 676.463 596.25 669.407 602 669.662C616.83 670.319 632.026 676.839 645.464 682.24C655.137 686.128 665.552 688.45 675 693.184C689.123 700.261 701.89 709 718 709L705 768C688.218 764.884 665.926 761.87 649 764.313C633.449 766.558 617.566 772.007 602 774C600.937 769.747 592.909 752.253 588.126 752.921C583.936 753.507 579.31 760.875 576.665 763.826C569.029 772.348 559.672 779.508 551 786.934C541.558 795.02 528.289 796.711 518.598 804.839C513.519 809.098 510.232 815.658 505.255 820.251C500.047 825.055 492.787 827.081 487.001 831.154C471.047 842.382 455.907 856.165 436 856C445.937 867.93 470.584 852.708 479.715 845.593C494.506 834.068 511.544 825.333 526.74 815.01C537.723 807.549 547.917 798.511 559 790.978C566.089 786.16 578.303 771.013 587 771.358C603.921 772.029 603.996 803.808 619.09 809.382C637.94 816.343 640.93 777.811 656 777.442C670.406 777.089 680.452 808.321 695.985 803.353C702.268 801.344 704.325 792.555 705.848 787C710.207 771.098 713.875 754.998 717.873 739C729.66 691.842 738.972 642.171 757.201 597C763.808 580.627 773.379 566.427 781.769 551C786.074 543.084 791.232 535.242 791.91 526C793.303 507.016 783.449 487.799 777.975 470C774.175 457.643 770.492 447.799 780.185 437.015C793.345 422.374 810.063 427.641 827 425.826C834.889 424.981 842.295 421.447 849 417.37C863.241 408.712 874.416 394.963 887 384.143C927.864 349.008 956.099 312.263 977.86 263C985.495 245.717 986.371 232.086 988.289 214C989.099 206.373 991.001 193.819 986.107 187.148C980.307 179.244 970.583 187.13 967.289 193.001C958.89 207.973 954.864 224.57 942.561 237.282C939.753 240.183 933.163 248.778 928.317 245.928C922.424 242.463 928.612 228.592 930.239 224C938.461 200.792 942 178.711 942 154L939 154z"/><path style="fill:#dbd5dc; stroke:none;" d="M936 156C911.507 190.315 879.675 215.265 848 242.272C836.115 252.405 823.765 269.031 810 276C810 250.742 804.922 226.373 793.209 204C788.738 195.459 782.261 183.63 772 182C773.641 189.885 777.656 196.888 778.711 205C782.07 230.854 777.593 258.887 772.221 284C769.825 295.2 767.268 308.631 762.431 319C750.424 344.74 726.06 363.887 720 393C725.159 390.02 732.723 374.84 733 369L745 355C740.635 380.78 734 404.548 734 431C734 438.071 732.132 448.317 734.742 454.961C738.006 463.273 748.826 469.013 754.985 475.04C765.565 485.391 772.856 496.006 781 508L782 508L775 476L772 476C771.908 465.726 761.639 451.407 765.292 442C769.733 430.562 792.726 415.522 805 416.041C811.891 416.332 818.231 422.501 825 420.005C843.95 413.02 862.457 394.147 878 381.572C916.912 350.091 955.971 306.506 973.312 258.996C981.905 235.453 982 210.771 982 186C976.561 186.923 975.783 191.582 973.411 196C968.137 205.822 963.886 216.154 958.561 226C947.799 245.897 928.434 258.504 912.455 273.745C906.335 279.583 895.255 290.333 887 292C891.505 282.479 899.956 276.185 904.961 267C916.639 245.57 923.617 223.297 930.491 200.17C934.202 187.682 941.461 169.015 936 156z"/><path style="fill:#bcbabc; stroke:none;" d="M767 183C767.262 195.285 772.058 207.563 772.911 220C774.922 249.338 768.841 282.128 759.251 309.714C752.52 329.076 735.39 346.056 725.435 364C718.488 376.523 712.406 388.921 706.72 402C704.849 406.303 702.558 413.978 696.911 414.563C688.361 415.45 682.889 401.189 678.501 395.921C668.325 383.702 651.318 368.147 635 365C638.632 372.427 649.049 376.742 655.17 382.321C668.286 394.276 681.046 408.453 688 425C694.669 423.607 698.912 430.342 703 421L704 421L701 440C705.881 434.065 704.81 425.931 707.104 419C711.42 405.962 716.867 393.255 722.998 381C733.719 359.573 750.622 341.818 761.925 321C772.663 301.224 776.727 271.229 777.964 249C778.864 232.856 781.241 214.97 777.789 199C776.374 192.457 774.434 184.161 767 183z"/><path style="fill:#cecace; stroke:none;" d="M601 783C589.221 758.261 570.728 782.392 557 791.657C528.663 810.781 502.245 833.97 472.004 850.174C461.448 855.831 446.909 865.226 436 856L449 857L449 855L436 855L438 848L435 850C435.117 844.316 437.279 838.656 436.812 833C435.28 814.448 426.885 796.914 437.569 779.04C445.99 764.954 477.654 762.149 477.981 743C478.276 725.686 453.79 714.134 449 698L452 699C450.349 693.505 450.662 690.484 457 690L457 689L452 689L452 686C460.852 685.295 467.661 680.374 476 677.876C492.8 672.843 509.882 668.75 527 665.467C538.641 663.234 552.244 663.19 563.911 665.259C571.651 666.632 577.564 671.251 585.83 669.741C602.126 666.763 607.538 648.688 616.545 637.205C623.711 628.069 633.044 621.517 637 610L619 623L626 589L628 590C634.441 539.08 635.71 486.346 625.399 436C621.932 419.07 615.806 391.675 602.674 379.529C595.261 372.673 584.37 372.959 575 371.573C557.463 368.977 540.126 364.775 523 360.266C462.953 344.454 402.311 325.366 346 299.114C298.047 276.759 249.203 257.424 202 233.245C191.287 227.757 164.414 206.56 153.742 222.105C147.387 231.363 158.234 242.605 164.285 248.576C185.069 269.083 202.903 291.941 223.039 313C289.424 382.425 338.302 463.467 387.797 545C401.998 568.393 410.768 593.601 422.756 618C426.885 626.404 430.077 639.748 438.04 645.297C447.544 651.92 464.479 646.652 475 645.282C503.202 641.608 533.577 638.138 562 638.001C570.916 637.958 598.159 633.59 601.593 645.005C604.084 653.288 589.148 664.503 582 664.641C569.888 664.876 557.278 659.572 545 659.039C522.123 658.046 498.683 666.75 477 673C467.86 675.635 455.791 678.101 448.108 683.916C432.333 695.856 456.047 720.602 463.997 730C467.019 733.572 472.248 738.845 471.319 744C468.967 757.067 443.448 764.331 435.213 774.001C420.598 791.161 430.976 812.601 431 832C431.009 839.643 426.767 849.71 429.858 856.96C437.724 875.407 467.588 856.898 477 850.505C499.568 835.175 524.769 821.922 546 804.826C554.527 797.96 564.638 792.506 572.83 785.585C577.066 782.006 580.208 775.934 586 774.558C592.35 773.049 596.092 780.516 601 783z"/><path style="fill:#bcbabc; stroke:none;" d="M356 482C361.038 485.049 366.949 498.199 368 504C377.106 508.733 379.892 522.649 384.404 530.999C387.582 536.88 392.957 541.274 396.441 547C403.833 559.152 407.538 572.899 412.644 586C414.647 591.138 417.955 595.517 419 601C425.336 604.663 423.769 611.935 425.688 617.999C428.319 626.313 435.909 640.825 444.001 644.686C453.689 649.308 467.842 641.833 478 641.089C508.471 638.855 539.26 634 570 634C580.204 634 602.044 638.065 610.347 631.066C614.436 627.619 615.8 617.974 617.275 613C621.207 599.747 624.441 588.654 626.59 575C632.119 539.875 630.46 504.246 626.286 469C624.596 454.734 624.501 441.871 620.286 428C616.239 414.688 611.942 395.266 601.827 385.015C591.116 374.159 577.044 375.248 563 372.92C540.686 369.221 516.683 358.251 494 358L494 355L443 341C441.02 335.368 431.213 335.607 426.015 334.384C412.1 331.113 397.28 324.276 384 318.83C324.258 294.335 263.169 273.242 208.424 239.123C197.652 232.409 181.294 223.344 168.996 220.67C163.073 219.382 155.805 220.924 155.113 228.001C154.421 235.078 161.46 241.694 166.181 246.245C177.996 257.635 191.315 269.154 201.459 282.17C206.041 288.048 209.449 295.158 214.259 300.816C227.186 316.019 243.108 329.094 255.816 344.553C275.776 368.836 291.881 396.547 311.876 420.816C318.925 429.372 325.323 439.052 332.425 447.424C340.643 457.111 354.258 468.693 356 482z"/><path style="fill:#dbd5dc; stroke:none;" d="M235 309C234.715 300.219 252.477 303.959 259 304.001C278.199 304.124 298.654 305.585 318 306.911C326.894 307.52 334.706 305.046 341 313L337 312L340 314L339 324L340 324C341.173 319.145 341.04 314.262 347 314C341.856 327.44 344.508 360.851 328 366L329 371L380.285 344.269L397 335L420 341L420 339C392.584 331.886 366.614 317.916 341.004 306.103C305.798 289.863 269.226 276.684 234.09 260.475C218.692 253.372 201.695 244.756 187.285 235.845C181.945 232.542 170.002 223.22 164.001 223.411C151.365 223.815 163.166 235.289 166.91 238.675C183.163 253.378 197.756 269.98 212.204 286.428C218.806 293.943 225.139 305.558 235 309z"/><path style="fill:#cecace; stroke:none;" d="M876 414C892.289 403.055 905.412 386.384 918.909 372.324C927.007 363.888 937.054 357.06 944.795 348.485C962.127 329.284 973.675 308.09 984.535 285.001C990.243 272.866 997.961 258.724 998 245L1002 245L1002 242L1009 242L1009 241L1004 241L1004 239C1020.64 238.943 1034.66 241.536 1051 244.681C1055.53 245.553 1063.47 246.232 1065 241C1078.8 239.795 1091.84 233.49 1106 235.184C1118.2 236.645 1128.53 241.523 1140 245.327C1151.36 249.094 1162.75 250.812 1173.91 255.661C1184.54 260.276 1193.41 267.621 1203.39 273.311C1207.56 275.693 1212.8 275.946 1216.7 278.506C1235.19 290.647 1252.08 307.792 1267.26 323.576C1284.18 341.17 1300.69 357.402 1314.14 378C1323.68 392.614 1329.35 408.84 1337.68 423.911C1363.68 470.964 1381.58 521.584 1383.96 576C1384.84 596.174 1383.88 620.757 1377.18 639.911C1372.35 653.721 1359.9 666.831 1357.27 681C1356.08 687.466 1359.61 692.878 1360.67 699C1361.86 705.851 1361.39 714.071 1360.91 721C1357.27 774.125 1344.15 838.109 1306.52 877.424C1296.97 887.399 1281.37 907.089 1267 909C1264.32 914.308 1256.74 916.984 1251.96 920.594C1235.45 933.067 1217.68 941.957 1197 945C1199.44 940.137 1202.53 936.879 1208 936L1208 932C1214.34 931.789 1215.67 927.709 1219.76 923.525C1227.68 915.414 1235.15 905.704 1239.15 895C1241 890.058 1243.79 883.018 1239.23 878.6C1234.48 873.988 1223.35 876.439 1219.03 880.549C1205.63 893.321 1196.71 912.807 1186.05 927.811C1182.82 932.348 1177.07 932.373 1174 937C1191.35 936.205 1203.9 907.3 1213.42 894.935C1217.55 889.569 1223.57 878.376 1231.89 881.894C1240.16 885.391 1232.65 900.045 1229.45 904.996C1224.15 913.217 1215.55 923.145 1207.82 929.099C1202.62 933.098 1189.43 935.723 1188.94 943.95C1188.8 946.231 1190.58 948.742 1191 951C1216.13 951 1240.66 935.227 1261 921.667C1284.27 906.154 1307.85 886.309 1323.64 863C1353.4 819.065 1363.37 755.04 1364.74 703C1364.91 696.455 1361.44 690.398 1361.36 684C1361.23 673.846 1370.46 662.872 1374.74 654C1380.33 642.409 1383.59 627.796 1384.83 615C1392.72 533.567 1363.49 457.642 1323.57 388C1280.88 313.52 1197.37 241.722 1109 233.17C1091.03 231.431 1076.25 238.651 1059 239.91C1044.27 240.984 1029.8 234.072 1015 234.001C1010.81 233.981 1004.91 233.007 1001.13 235.179C995.854 238.217 996.037 247.758 994.329 253C989.745 267.063 984.246 282.028 977.096 295C966.839 313.61 956.522 333.94 940.961 348.907C925.049 364.21 909.042 378.756 893.911 395C888.204 401.126 879.566 406.374 876 414z"/><path style="fill:#bcbabc; stroke:none;" d="M1065 241C1061.92 246.034 1055.18 245.453 1050 244.138C1034.32 240.154 1020.03 238.669 1004 239L1004 241C1015.18 241.882 1027.1 242.619 1038 245.4C1044.74 247.119 1051.87 251.235 1059 250.887C1068.73 250.413 1077.49 242.821 1087.01 241.224C1102.34 238.655 1119.27 243.195 1134 246.895C1242.18 274.066 1318.93 377.608 1355.85 476.83C1372.64 521.974 1381.01 567.651 1375.29 616C1373.65 629.83 1369.56 656.684 1356 664L1365 645L1348 645L1348 642L1333 642L1333 645L1326 645L1326 648C1309.44 648 1288.73 652.027 1273 646L1273 652L1270 652L1270 659L1267 659C1271.12 625.163 1272 591.295 1272 557L1268 557L1268 558C1273.05 564.672 1270 580.761 1270 589L1269 589C1266.85 582.468 1261.46 583.3 1256 585L1256 580C1249.83 585.94 1246.61 597.357 1242.57 605C1236.71 616.102 1224.73 632.701 1214.62 640.401C1200.84 650.912 1176.96 651.367 1161 658.333C1149.64 663.292 1135.06 669.348 1126.18 678.184C1121.76 682.592 1119.95 694.079 1114.89 696.258C1094.79 704.911 1068.89 697.027 1048 702C1052.31 706.849 1057.99 706 1064 706C1076.31 706 1086.2 704.497 1098.09 702.255C1107.19 700.54 1117.12 700.62 1126 698.391C1164.44 688.741 1195.89 667.282 1222.5 638.245C1233.57 626.165 1241.04 611.979 1251.03 599.129C1254 595.302 1259.85 589.666 1264.49 594.434C1268.91 598.982 1267 609.213 1267 615C1267 635.332 1260.3 654.104 1258.17 674C1254.34 709.788 1259.18 747.811 1252.19 783C1249.57 796.212 1238.55 809.859 1231.33 821.17C1218.69 840.996 1207.75 861.403 1193.71 880.324C1188.55 887.275 1184.56 896.495 1177.58 901.816C1161.81 913.83 1145.45 915.153 1126.09 911.741C1112.27 909.305 1097.66 901.409 1085.73 914.546C1077.59 923.504 1071.8 936.071 1066.06 946.83C1053.3 970.765 1039.09 999.675 1053.92 1026.09C1057.96 1033.29 1064.1 1052.91 1073.17 1055.26C1075.97 1055.99 1080.02 1052.45 1083 1052C1084.59 1045.63 1087.67 1038.73 1090.9 1033C1092.58 1030.03 1094.95 1028.06 1097.18 1025.56C1099.99 1022.41 1102.32 1018.98 1106.09 1016.82C1118.34 1009.77 1129.52 1025.92 1137.18 1032.57C1145.13 1039.47 1152.89 1044.42 1158.16 1054.04C1162.12 1061.26 1168.77 1076.28 1177 1079C1177.55 1087.11 1184.32 1091.12 1187.59 1098C1190.28 1103.68 1190.35 1110.17 1192.56 1115.96C1199.04 1132.94 1208.42 1150.06 1208.99 1169C1209.16 1174.8 1211.94 1183.55 1208.97 1188.9C1204.45 1197.04 1191.55 1194.57 1184 1195.09C1160.38 1196.71 1139.4 1203.07 1117 1209.59C1107.92 1212.23 1097.68 1212.39 1089 1215.55C1079.75 1218.91 1072.54 1225.1 1063.95 1229.06C1050.46 1235.28 1036 1238.92 1023.09 1246.56C996.72 1262.15 969.819 1281.66 946.424 1301.61C930.939 1314.81 917.808 1334.18 903.911 1349.21C898.409 1355.16 894.899 1366.05 885.986 1367.96C879.27 1369.41 876.969 1358.5 875.203 1354C870.267 1341.42 868.754 1327.63 860.579 1316.54C858.345 1313.51 857.717 1310.33 854 1309C853.972 1300.84 850.002 1298.32 846.259 1291.74C840.403 1281.45 835.903 1271.68 828 1262.58C807.518 1238.98 786.363 1219.34 762.765 1198.77C752.86 1190.13 744.097 1181.04 732.718 1173.98C721.353 1166.93 708.974 1160.97 696.83 1155.4C690.537 1152.51 684.399 1153.22 679.819 1146.83C674.609 1139.55 678.146 1132.22 681.029 1125C687.05 1109.93 693.529 1096.84 704.448 1084.54C717.019 1070.39 725.204 1053.16 736.951 1038.22C756.864 1012.91 785.055 993.604 813.7 979.75C819.719 976.839 824.516 971.923 831 970C830.998 953.764 820.783 954.95 807.985 957.116C792.342 959.762 776.47 963.177 762 969.779C756.573 972.255 750.012 976.633 744 976C735.173 986.262 716.685 990.674 705 997.359C690.171 1005.84 677.475 1023.43 661 1027.25C645.923 1030.75 629.837 1026.19 615 1029.75C605.287 1032.08 598.066 1037.95 589 1041.61C579.612 1045.4 565.047 1048.7 555 1050L555 1053C530.985 1056.19 512.388 1071.4 492 1082.1C453.217 1102.45 416.573 1125.99 382.633 1154.73C360.863 1173.16 340.089 1194.68 316.816 1211.29C296.475 1225.82 278.867 1242.43 263.015 1262C258.168 1267.98 247.944 1274.57 250 1283L252 1283C255.179 1277.84 260.518 1274.63 264.374 1269.96C284.652 1245.38 306.649 1226.11 330.91 1205.64C364.043 1177.69 396.846 1150.26 432.025 1124.71C446.049 1114.53 460.288 1105.44 475 1096.21C479.78 1093.22 487.039 1085.98 492.892 1085.88C495.792 1085.83 497.767 1089.51 500 1091C498.664 1082.35 521.261 1066.75 528 1073L529 1073C529.389 1064.83 538.465 1063.65 544.982 1061C560.501 1054.68 574.749 1049.41 591 1045.11C599.975 1042.73 609.04 1035.46 618 1034.34C632.43 1032.54 650.98 1038.4 665 1033.52C671.71 1031.19 677.82 1023.62 683.648 1019.48C697.651 1009.51 712.609 999.488 728 991.769C738.439 986.533 749.068 981.185 759.982 976.982C764.051 975.414 770.73 973.361 772 969L779 969C780.741 974.249 789.036 974.962 794 976L781 968L805 963.573L819 969L801 981C784.275 983.275 767.935 999.417 756.741 1010.83C730.3 1037.79 709.421 1068.19 688.692 1100C679.885 1113.51 666.056 1131.41 665 1148C670.846 1149.38 676.356 1153.25 682 1155.49C703.493 1164.02 721.283 1173.38 740 1187.27C779.616 1216.66 812.948 1249.99 840.841 1291C854.189 1310.62 858.332 1334.5 869.225 1355C872.273 1360.74 873.378 1371.73 880.044 1374.08C888.748 1377.15 895.281 1368.93 899.921 1363C913.63 1345.48 927.282 1329.62 943 1313.91C977.097 1279.84 1017.47 1253.41 1061 1233.82C1071.46 1229.11 1083.01 1220.61 1094.01 1217.97C1122.76 1211.08 1152.57 1206.62 1182 1201.46C1190 1200.06 1206.66 1203.9 1212.49 1197.08C1217.86 1190.8 1214.17 1178.17 1213.29 1171C1210.57 1148.91 1204.7 1130.27 1198 1109L1217 1111L1217 1110L1199.23 1106.4L1190.65 1087.29L1167 1051L1175 1051L1175 1050L1162 1052C1159.84 1043.79 1150.97 1036.59 1145 1030.98C1142.66 1028.77 1137.72 1025.58 1137.72 1021.96C1137.71 1016.3 1146.93 1008.64 1150 1004C1144.3 1006.78 1139.55 1013.27 1137 1019C1127.48 1015.84 1120.06 1002.19 1110.71 1000.66C1105.45 999.799 1101.38 1007.42 1098.42 1010.62C1088.36 1021.51 1080.74 1034.8 1076 1049C1060.65 1040.1 1058.35 1020.68 1054.54 1005.29C1052.67 997.704 1050.25 989.057 1052.49 981.17C1056.2 968.158 1064.75 955.83 1071.21 944.001C1076.88 933.616 1086.41 915.4 1098.04 910.844C1103.48 908.712 1114.46 913.088 1120 914.721C1134.08 918.871 1157.38 925.535 1171 917.107C1185.26 908.279 1194.76 885.985 1204.34 872.576C1208 867.454 1210.15 860.878 1216 858C1212.24 879.178 1202.03 896.223 1188.96 913C1182.5 921.285 1177.05 929.273 1166 931.698C1152.81 934.592 1133.08 928.064 1120 925.625C1115.04 924.7 1107.24 920.533 1102.32 922.6C1095.33 925.541 1088.96 936.692 1085.37 943.039C1082.57 948.004 1079.71 953.302 1079 959L1088 966L1086 969C1105.33 969 1120.98 975.928 1138.29 983.687C1144.61 986.52 1153.84 988.667 1156 996L1157 996L1157 993L1176 1003C1171.7 1011.27 1174 1023.85 1174 1033L1175 1033L1175 1006C1182.35 1008.17 1190.7 1016.55 1196.16 1021.96C1208.98 1034.7 1224.83 1047.58 1233 1064C1237.67 1063.11 1239.42 1067.6 1241.73 1071C1247.03 1078.76 1252.77 1085.67 1257.28 1094C1264.82 1107.93 1274.83 1122.14 1280.3 1137C1284.5 1148.4 1287.17 1165.62 1294.89 1174.71C1299.04 1179.61 1300.37 1194.98 1309.07 1195.34C1315.47 1195.61 1314.01 1184.88 1314 1181C1313.98 1165.99 1306.77 1153.12 1303.25 1139C1300.12 1126.44 1292.94 1114.47 1289 1102C1307 1104.29 1324.03 1112.97 1341 1119.04C1366.4 1128.12 1392.59 1136.54 1417 1148.62C1426.91 1153.52 1432.33 1165.33 1438.84 1173.83C1440.67 1176.21 1445.04 1180.49 1444.39 1183.79C1443.45 1188.5 1429.79 1194.05 1426 1197.01C1413.05 1207.16 1394.17 1223.43 1388 1239C1402.73 1227.09 1412.67 1209.8 1428 1198.02C1431.74 1195.15 1441.07 1187.63 1445.91 1189.16C1456.92 1192.64 1465.29 1211.32 1471.72 1220.04C1476.56 1226.61 1483.91 1232.95 1486 1241L1481 1242L1481 1243C1495.43 1240.93 1503.78 1262.61 1512.06 1272.98C1530.48 1296.07 1546.47 1324.51 1568.14 1344.54C1577.98 1353.64 1585.46 1364.4 1594.75 1374C1599.36 1378.76 1605.95 1383.14 1607 1390L1587 1381.46L1540 1355.96L1396 1276.59L1359 1257.7L1338 1244C1321.44 1246.14 1330.22 1268.16 1331.09 1280C1332.93 1305.15 1331.94 1329.9 1325.45 1354.29C1323.11 1363.07 1320.7 1375.24 1312 1380C1311.28 1368.68 1304.94 1357.8 1300.09 1347.96C1295.35 1338.36 1291.95 1327.91 1286 1319C1281.54 1312.33 1270.39 1301.78 1269.08 1294.01C1268.51 1290.64 1270.89 1286.56 1271 1283L1268 1292L1264 1292L1242.69 1270.96L1242 1260L1241 1260L1239 1269C1230.14 1262.19 1219.75 1258.11 1210 1252.95C1182.75 1238.51 1153.83 1224.54 1122 1227.09C1103.74 1228.56 1085.5 1237.76 1068.99 1245.05C1019.55 1266.88 974.428 1300.27 937 1339C917.003 1359.7 899.519 1383.65 885.924 1409C883.521 1413.48 877.069 1433.91 870.926 1433.08C865.56 1432.35 865.115 1424.04 865.015 1420C864.66 1405.77 862.702 1390.9 859.726 1377C857.975 1368.82 850.86 1359.64 847.159 1352C842.726 1342.84 839.179 1333.18 834.059 1324.42C821.096 1302.26 798.768 1283.03 778.871 1267.2C761.224 1253.17 742.488 1244.3 723 1233.68C708.716 1225.89 696.309 1215.25 681 1209.32C637.695 1192.53 588.237 1187.88 542 1189.01C521.922 1189.51 500.893 1190.71 481 1193.19C471.011 1194.43 462.277 1198 452 1198C448.743 1204.16 435.453 1204.94 429.134 1207.04C407.477 1214.26 384.849 1220.3 363 1226.84C356.697 1228.73 339.011 1233.1 337 1240C329.001 1241 321.065 1246.86 314 1250.62C303.342 1256.29 292.139 1261.27 282.17 1268.09C272.062 1275.01 260.966 1284.63 249 1288L250 1285C242.629 1291.54 261.089 1289.13 264.285 1287.28C284.049 1275.83 300.479 1259.25 322 1250.68C328.773 1247.98 348.83 1241.87 351 1235C359.049 1233.95 365.76 1229.31 373.285 1226.75C388.217 1221.67 404.648 1217.17 420.039 1212.51C449.139 1203.72 480.585 1199.11 511 1196.17C543.888 1192.99 578.306 1192.64 611 1197.3C628.635 1199.81 647.45 1207.59 665 1208L665 1211C683.391 1214.12 697.967 1225.68 714.015 1234.04C761.602 1258.82 807.055 1290.19 835.116 1337.25C848.872 1360.32 855.868 1384.74 859.289 1411C860.314 1418.86 859.143 1433.73 869.005 1435.36C881.878 1437.49 889.709 1415.16 894.031 1406C899.745 1393.88 909.562 1384.42 917.319 1373.71C930.057 1356.11 941.322 1339.38 957.174 1324.13C964.626 1316.96 973.159 1313.25 980.74 1307.21C991.659 1298.52 1002.04 1287.63 1014.04 1280.22C1027.3 1272.04 1042.05 1266.35 1055.71 1258.83C1075.44 1247.99 1100.19 1234.45 1123 1232.17C1140.52 1230.42 1156.68 1236.92 1173.09 1241.45C1196.76 1247.99 1213.87 1259.75 1234.17 1273.28C1245.78 1281.02 1257.35 1286.69 1266.62 1298.07C1277.67 1311.63 1283.49 1326.33 1290.98 1342C1296.63 1353.83 1303.32 1363.94 1306 1377C1308.38 1378.36 1310.27 1382.19 1313.04 1382.53C1322.7 1383.73 1327.69 1364.54 1328.92 1358C1333.46 1333.82 1339.67 1309.92 1336.87 1285C1336.08 1277.94 1331.08 1262.43 1337.56 1256.62C1341.35 1253.23 1348.46 1257.76 1352 1259.61C1363.79 1265.77 1376.44 1276.2 1390 1278L1390 1281L1409 1289C1410.81 1294.74 1417 1295.01 1422 1297.06C1431.04 1300.78 1439.63 1306.52 1448 1311.53C1466.16 1322.41 1483.92 1333.69 1503 1343.53C1510.7 1347.51 1519.29 1349.52 1526.83 1354.01C1538.5 1360.97 1549.59 1367.17 1561.91 1372.67C1567.45 1375.14 1570.61 1378.7 1577 1379L1577 1384C1584.08 1385.66 1604.26 1399.87 1609.18 1388.56C1612.03 1382.02 1606.52 1377.9 1602.7 1373.62C1594.06 1363.96 1584.21 1355.6 1575.86 1345.57C1546.71 1310.58 1520.63 1274.71 1494.24 1238C1488.43 1229.91 1480.35 1223.24 1475.03 1215C1463.56 1197.26 1451.94 1178.82 1437.74 1162.87C1433.16 1157.73 1428.21 1149.1 1421 1148C1418.7 1140.12 1396.08 1135.72 1389 1131.93C1366.55 1119.9 1340.77 1113.87 1317.26 1104.33C1309.31 1101.1 1295.9 1093.85 1287.45 1099.88C1282.06 1103.73 1284 1114.41 1284 1120C1277.92 1118.1 1274.07 1109.28 1269.68 1104.71C1262.6 1097.35 1259.84 1088.49 1254.2 1080C1245.86 1067.43 1236.01 1053.49 1225.52 1042.59C1208.84 1025.27 1192 1005.71 1171 993.559C1155.93 984.833 1138.4 977.03 1122 971.339C1113.2 968.286 1103.6 967.536 1095.02 963.728C1083.87 958.783 1089.46 947.082 1095.04 940.128C1111.67 919.425 1148.69 940.088 1170.96 936.857C1187.98 934.386 1197.4 911.765 1206.05 899.075C1212.24 889.997 1219.87 874.809 1233 876.613C1242.94 877.98 1241.88 886.695 1239.15 894C1234.96 905.215 1227.12 914.859 1219.04 923.525C1215.35 927.482 1213.83 931.55 1208 932L1208 936C1202.36 936.517 1198.69 939.534 1197 945C1217.6 943.204 1236.88 933.024 1252.91 920.594C1257.39 917.117 1265.34 914.482 1267 909C1281.85 908.005 1297.42 887.306 1307.32 877.424C1344.97 839.854 1357.38 773.536 1360.91 722C1361.43 714.462 1361.97 705.452 1360.67 698C1359.74 692.634 1356.36 687.642 1357.29 682C1359.6 668.009 1372.29 654.399 1377.18 640.83C1384.25 621.209 1384.87 595.703 1383.96 575C1381.57 520.303 1363.31 470.42 1337.68 422.961C1329.49 407.794 1323.7 391.626 1314.14 377C1289.99 340.032 1254.12 303.472 1217.54 278.506C1213.68 275.876 1208.36 275.718 1204.2 273.311C1194 267.417 1184.89 259.829 1173.91 255.253C1163.05 250.724 1151.99 248.974 1141 245.327C1129.29 241.443 1118.56 236.103 1106 235.093C1091.77 233.95 1078.8 238.962 1065 241z"/><path style="fill:#dbd5dc; stroke:none;" d="M1002 242L1002 246C1047.05 246 1087.64 267.6 1116.12 301.961C1123.94 311.4 1135.33 323.244 1137 336C1124.98 338.468 1112.45 339.993 1101 344.684C1094.14 347.495 1088.01 352.068 1081 354.735C1067.33 359.934 1051.83 366.002 1040 374.895C1007.54 399.3 984.937 443.923 974.289 481.999C969.988 497.382 965 509.656 965 526L966 526C967.226 509.715 989.24 496.928 1000 486.819C1009.36 478.03 1020.41 471.692 1030.82 464.241C1042.91 455.582 1053.77 445.637 1067 438.901C1074.71 434.975 1084.58 435.288 1091.82 430.723C1104.49 422.719 1113.19 409.185 1124.83 399.973C1135.86 391.243 1145.36 380.307 1155.2 370.386C1160.25 365.288 1164.34 359.986 1172 362L1170 358L1176 353L1176 358L1188 347L1191 349L1192 349L1207 340.471L1225 341L1269 342L1269 340L1284 352C1282.5 345.112 1276.9 341.108 1272.42 335.985C1261.35 323.315 1248.9 312.649 1236.01 301.92C1200.29 272.159 1153.09 243.145 1105 241.039C1098.72 240.764 1090.19 239.711 1084.17 241.684C1076.3 244.264 1066.35 251.006 1058 250.777C1051.53 250.599 1045.16 246.971 1039 245.4C1026.97 242.33 1014.33 242 1002 242z"/><path style="fill:#bcbabc; stroke:none;" d="M998 245C997.852 261.554 986.974 278.166 980.546 293C971.878 313.002 959.056 332.449 944.076 348.485C938.92 354.006 932.036 357.755 926.751 363.205C903.779 386.895 883.401 408.742 855 425.715C845.58 431.345 836.144 440.469 825 441.71C813.793 442.957 795.883 432.033 788.367 445.005C782.424 455.264 789.43 464.719 793.691 474C800.34 488.482 809.766 510.916 807.816 527C804.549 553.935 782.306 573.478 773.547 598C755.386 648.846 747.555 702.137 733.359 754C731.542 760.636 727.544 766.268 725.898 773C722.991 784.89 722.711 797.046 720.535 809C719.488 814.754 716.805 821.182 710.999 823.592C705.911 825.704 700.157 821.898 696 819.316C685.884 813.032 676.311 806.649 667 799.2C663.892 796.714 659.313 791.515 655 791.621C650.683 791.727 646.967 797.074 644.424 800C637.825 807.594 626.116 823.672 614 819.971C600.692 815.906 596.226 784.528 579.17 790.563C570.26 793.716 563.388 804.805 558.09 812.014C547.771 826.056 536.931 840.149 524.258 852.216C487.381 887.33 444.054 909.911 393.91 918.741C382.186 920.805 369.765 919.555 358 919.039C333.744 917.977 308.25 917.789 287 904.211C280.157 899.838 260.63 882.765 253.148 893.148C246.566 902.284 253.038 918.231 254.75 928C261.636 967.282 290.996 1006.17 325 1026.54C336.037 1033.16 347.968 1038.12 359 1044.68C362.53 1046.78 368.946 1049.95 370.356 1054.05C372.965 1061.66 361.738 1072.95 358.198 1079C353.129 1087.66 349.231 1097.73 343.37 1105.82C333.837 1118.96 319.369 1132.69 319 1150C353.878 1145.75 374.711 1121.07 402.13 1102.46C451.918 1068.67 509.065 1041.91 566 1023.95C583.049 1018.57 603.933 1007.2 622 1008C629.444 997.824 645.486 992.355 655.196 984.076C676.66 965.776 700.41 950.944 721.661 932.562C729.592 925.701 734.384 916.295 742.83 909.959C751.112 903.747 758.495 896.304 765.961 889.17C769.359 885.921 773.453 880.514 778.911 881.657C788.623 883.692 793.974 898.383 797.88 906C804.75 919.393 815.875 925.546 825.119 936.054C829.494 941.027 830.077 948.034 837 950C838.078 956.684 844.766 960.647 851 962C852.023 974.977 872.642 978.091 880.961 985.255C909.298 1009.66 950.083 1022.87 987 1027.29C1001.16 1028.98 1019.37 1029.61 1033 1025L1033 1024L1011 1025C1010.88 1021.31 1010.69 1019.22 1007 1018L1007 1019L1010 1023C947.158 1023 887.874 995.738 842.961 951.911C825.516 934.888 811.873 916.013 798.494 896C793.897 889.124 787.238 876.518 777.996 876.048C767.545 875.517 761.659 884.318 754.999 891C740.758 905.288 726.672 920.271 711 933L714 927L673 927L673 928L709 931L690 951L624 954L624 955L689 952L689 953L640 989.907L596 1007.64L548 1024L548 1020L547 1020C543.199 1025.72 536.993 1026.09 531.004 1028.42C520.247 1032.61 509.604 1037.71 498.999 1042.46C494.81 1044.34 487.233 1050.5 483 1048L482 1048C480.029 1054.96 472.121 1057.79 466 1060.46C457.094 1064.35 448.587 1069.79 440 1074.34C417.649 1086.17 394.242 1100.99 374.225 1116.31C357.982 1128.74 341.03 1143.51 320 1148C323.308 1137.55 334.189 1127.76 340.617 1118.9C350.901 1104.73 359.641 1088.98 368.66 1074C372.686 1067.31 384.021 1055.46 383.408 1047.23C383.141 1043.64 375.68 1043.16 373 1042.17C361.426 1037.88 350.397 1035.09 339.286 1029.39C307.138 1012.9 282.396 982.267 265.649 951C263.628 947.228 264.461 943.117 263.165 939.17C259.745 928.752 256.587 918.993 255.285 908C254.883 904.597 253.56 896.252 256.564 893.748C259.117 891.62 266.668 897.143 269 898.511C279.742 904.813 295.576 910.188 298 923L299 923L298 917L348 925L345 932L350 924C387.622 924 431.805 922.536 465 902L465 937L466 937C466 928.43 462.598 910.666 467.028 903.259C471.983 894.975 485.529 888.781 493 882.74C512.736 866.783 531.84 850.48 549.181 831.911C556.892 823.653 565.465 815.195 571.957 806C574.301 802.68 576.186 795.391 581.036 794.907C584.899 794.521 587.533 799.399 589.471 802C595.211 809.707 600.302 819.109 608 825L607 821L625 826L626 826L651 795L684.021 818.32L698 831L676.829 846.448L646.445 874.78L633 892L648 875L651 877C656.306 875.822 660.102 873.666 661 868L672 861C674.431 856.122 678.675 855.759 682.544 852.469C690.922 845.346 697.066 837.532 709 839L705 832C715.449 834.765 716.871 829.871 726 828L729 835L731 831C738.891 833.217 748.481 833.527 755.83 837.144C761.176 839.775 765.372 844.685 770.005 848.329C774.541 851.896 781.095 853.091 779 860L802 871C802.911 876.721 811.315 884.12 817 885C817.223 889.586 824.413 896.794 829 897C829.729 899.794 833.596 907.517 835 901L839 903C833.471 891.127 820.629 879.403 811.089 870.576C793.913 854.682 776.838 839.701 757.83 826C750.706 820.865 743.797 820.497 735.83 817.834C733.284 816.983 729.801 817.221 728.194 814.682C724.633 809.06 729.982 796.451 730 790C770.897 794.099 806.158 832.922 826.95 865.004C833.739 875.48 842.562 883.961 849.781 894C852.147 897.291 855.607 903.499 860 902L869 913L875 911L875 910L870 910L872 905C864.309 900.094 855.65 884.228 851 876L856 879C851.479 865.77 840.228 853.758 833.262 841.576C818.224 815.275 807.002 781.43 807 751C807 744.271 804.654 734.28 806.707 728C808.359 722.944 812.887 720.565 816.049 716.675C823.407 707.626 831.014 698.837 838.679 690.089C847.914 679.551 856.263 678.461 869 673.699C873.271 672.102 876.515 669.063 881 668L881 667L872 667L872 652C868.502 650.072 868.125 647.878 868 644C863.617 646.532 864.38 650.54 864 655L850 639C849.239 656.67 840.103 672.846 824 681C825.39 661.813 843.889 641.482 821.676 627.159C818.929 625.388 815.121 623.887 812 623L812 634C804.936 633.134 799.606 629.285 794.001 625.18C789.412 621.819 775.442 614.444 774.001 608.957C770.88 597.075 786.408 584.682 792.675 577C805.145 561.713 814 543.683 814 524C814 505.19 806.7 487.308 800.036 470C798.191 465.21 790.229 454.079 792.887 449.129C799.879 436.105 808.381 447.804 816.325 450.491C822.247 452.494 830.905 450.579 835.83 446.983C840.323 443.703 843.514 438.892 848 435.557C856.305 429.384 866.094 425.24 874.41 418.946C911.293 391.027 945.691 358.355 970.369 319C981.833 300.717 996.344 277.801 999 256L1005 256L1005 255L999 255L1001 247L1040 251C1027.32 245.158 1011.62 246.075 998 245z"/><path style="fill:#a4a2a5; stroke:none;" d="M1001 247L999 255L1023 256.76L1055 267L1055 270C1062.84 270.365 1068.72 275.031 1075 279.341C1089.37 289.202 1099.64 298.797 1109.36 313.155C1113.74 319.621 1118.89 323.903 1120 332L1117 332L1117 328L1108 326L1113 330L1109 340C1114.52 340 1131.77 340.825 1134.91 335.427C1136.76 332.247 1131.9 326.048 1130.6 323.089C1124.77 309.837 1115.23 297.415 1104.68 287.49C1075.91 260.435 1040.09 247 1001 247M911 253L890 290C901.528 285.025 920.505 272.6 926 261C918.634 261.925 914.253 261.458 914 253L911 253z"/><path style="fill:#dbd5dc; stroke:none;" d="M999 256C995.398 273.547 986.299 290.476 977.565 306C951.65 352.06 910.969 394.966 866.576 423.833C859.955 428.139 852.12 431.384 846 436.34C839.22 441.83 835.164 448.854 826 450.624C814.942 452.761 799.769 433.149 792.237 449.129C789.634 454.651 799.323 469.377 801.521 474.911C810.357 497.155 815.199 513.939 815 538C843.044 538.311 860.071 571.555 862 596L872.535 581L896.639 538.004L914.664 512.911L957.208 442.439L985.777 397.039L996 374L1002 372C1002.79 367.023 1009.71 364.511 1007.84 370.023C1004.38 380.224 994.018 386.68 992 398L999 391L1004 392C1019.1 371.385 1032.24 347.334 1051.02 329.83C1055.6 325.556 1061.84 315.456 1068.09 313.886C1073.4 312.551 1080.77 316.28 1086 317.335C1095.51 319.255 1113.6 320.868 1117 332L1120 332C1119.22 322.475 1112.36 317.441 1107.59 309.714C1086.46 275.473 1037.73 256 999 256z"/><path style="fill:#bcbabc; stroke:none;" d="M1048 265L1055 268L1055 267L1048 265z"/><path style="fill:#cecace; stroke:none;" d="M1058 270L1058 271L1080 283C1074.68 277.191 1065.87 271.243 1058 270z"/><path style="fill:#bcbabc; stroke:none;" d="M895 278L887 292L896 287L890 290L897 278L895 278z"/><path style="fill:#cecace; stroke:none;" d="M233 310C257.356 334.803 278.448 362.502 299.497 390.001C307.15 399.999 313.759 416.495 323.599 424.208C328.464 428.022 339.167 424.963 345 425.001C357.684 425.082 370.706 429.572 382.91 432.279C393.785 434.69 404.682 444.14 415.001 448.714C439.775 459.698 461.739 466 489 466C481.956 473.859 470.688 476.171 462.093 481.954C440.536 496.462 411.279 518.342 384 519L421.015 590.92L431 618L433 618C433 600.923 446.896 582.228 461 574C468.435 569.663 474.233 562.883 482 559C484.548 557.726 488.623 557.585 491 556C493.122 554.586 495.857 551.048 499 550C514.48 544.84 526.968 540.016 541 533C546.031 530.485 552.137 530.094 557 527C562.419 523.552 559.827 512.215 562 507C566.194 496.934 571.655 485.799 577 476C582.895 465.193 593.22 453.52 603 447C607.128 444.248 611.002 433 615 434L607 403L604 403L597 383C533.278 383 476.096 348.855 415 337L415 338L420 339L420 341L397 335L381.17 343.202L329 371L328 366C332.988 365.143 336.731 359.225 338.671 354.711C343.808 342.76 343.364 326.811 347 314C340.674 313.076 340.91 319.12 340 324L339 324L340 314L337 314L337 312L341 313C336.26 303.957 326.201 307.61 318 306.83C297.538 304.884 275.405 304 255 304C245.469 304 236.94 300.334 233 310z"/><path style="fill:#cecace; stroke:none;" d="M1192 349L1191 349L1188 347L1176 358L1176 353L1170 358L1172 362C1164.09 359.298 1159.59 365.18 1154.39 370.386C1144.52 380.249 1135.1 391.332 1123.99 399.973C1112.28 409.076 1103.76 422.958 1090.91 430.723C1083.52 435.188 1073.78 434.939 1066 438.901C1053.2 445.418 1042.37 454.976 1030.82 463.599C1020.27 471.469 1008.69 477.736 999.075 486.819C988.364 496.941 966.533 509.583 966 526L965 526L965 514L964 514C959.56 537.902 957 562.725 957 587L958 587C967.382 572.776 971.935 557.322 978.959 541.999C988.532 521.117 1001.67 498.186 1017.09 481.568C1020.18 478.242 1025.16 477.492 1028.96 475.218C1039.01 469.203 1048.49 463.113 1058 456.188C1070.71 446.934 1088.62 445.912 1103 440.907C1109.68 438.582 1116.73 438.18 1117 430L1143 431L1143 434C1159.96 436.656 1174.23 446.25 1189.09 454.182C1225.99 473.886 1263.62 503.302 1289.85 536.129C1295.46 543.15 1298.23 551.452 1303.09 558.83C1313.59 574.761 1320.54 589.656 1326.51 607.911C1329.27 616.347 1332.16 620.834 1331 630C1316.6 630 1302.66 628 1288 628C1283.83 628 1275.02 627.251 1274 632L1270 625L1269 625L1267 659L1270 659L1270 652L1273 652L1273 646C1286.86 653.211 1310.76 648 1326 648L1326 645L1333 645L1333 642L1348 642L1348 645L1365 645L1356 664C1362.76 661.805 1364.2 653.936 1367.28 648.286C1377.51 629.556 1377 603.79 1377 583C1377 512.522 1347.68 445.706 1312.32 386C1304.42 372.662 1293.31 361.941 1285 349L1284 352L1269 340L1269 342L1224 341L1207 340.013L1192 349M743 355C739.976 360.56 739.158 366.094 733 369C731.996 375.762 725.002 388.228 720 393L728 374C722.84 378.279 721.685 384.337 718.54 390C708.988 407.201 701.387 431.409 699 451L700 451L700 448L703 448C704.367 452.535 708.362 454.609 711.41 458.053C716.772 464.112 720.908 471.983 727.903 476.446C732.082 479.113 737.045 478.99 741 482.228C758.396 496.476 771.676 516.464 782 536L783 536C790.591 523.201 784.284 511.176 781 498L780 498L782 508L781 508C774.635 494.764 765.686 484.217 754.985 474.093C748.621 468.072 739.246 463.017 735.174 454.961C731.884 448.45 734 437.16 734 430C734 403.848 742.452 380.592 745 355L743 355M1002 372L996 374C990.434 398.55 970.16 421.913 956.644 442.439C936.671 472.768 918.09 503.726 898.38 534.17C888.708 549.11 881.479 565.888 871.888 581C868.678 586.058 866.59 592.065 862 596C860.924 570.935 843.224 538.097 815 538C815.33 521.993 814.926 507.546 810 492L809 492C809.371 507.845 817.235 522.685 813.471 539C808.587 560.169 788.634 573.46 780 592L795 578L810 630L812 630L812 623C826.794 629.632 833.265 636.974 832 653L833 653C836.27 641.938 833.24 629.199 832.17 618C831.444 610.403 832.559 603.995 828.236 597.185C825.929 593.551 821.312 592.954 818.018 590.443C809.988 584.321 804.97 574.001 808.228 564.018C813.475 547.939 836.296 567.123 840.429 575C852.372 597.763 848.003 625.611 848 650L849 650L850 639L864 655L868 644C868.047 647.935 867.954 650.657 872 652L872 667C891.956 666.998 912.108 650.37 925.49 636.54C930.046 631.832 936.743 616.899 943 616L948 560L947 560C929.425 591.582 906.1 636.337 870 650L876.206 622.039L884 603C895.393 599.656 899.902 580.194 905.826 571.184C921.182 547.826 934.251 521.371 947.892 496.714C953.288 486.962 958.425 469.776 967 463L967 467L968 467C976.567 440.103 990.522 416.545 1004 392L999 391L992 398C995.043 387.433 1005.52 379.992 1008.34 370.019C1010.1 363.808 1002.47 365.959 1002 372z"/><path style="fill:#a4a2a5; stroke:none;" d="M1018 375C1008.64 391.793 993.663 405.696 985.251 423.015C969.8 454.825 959.091 491.051 953.325 526C951.148 539.193 951.837 552.859 949.536 566C945.802 587.324 944 608.345 944 630C944 638.607 942.552 648.72 945 657C948.201 652.102 949.826 650.149 956 650C956 589.586 953.813 523.993 978.336 467.17C985.712 450.078 993.216 431.367 1003.9 416C1011.52 405.036 1024.54 393.717 1030 382C1023.1 382.816 1019.59 383.202 1020 375L1018 375z"/><path style="fill:#bcbabc; stroke:none;" d="M1008 410L996 430L997 430L1008 410z"/><path style="fill:#dbd5dc; stroke:none;" d="M660 413C662.32 439.608 669.173 466.06 664.853 493C663.84 499.316 657.217 502.459 654.573 508C651.187 515.094 651.628 527.137 651.089 535C650.052 550.154 650 565.816 650 581C650 587.58 651.626 596.715 649.412 602.961C643.76 618.903 624.594 629.135 620 646L642.089 652.886L695.286 673.829L723 689L730 657C711.382 651.466 694.628 616.927 708.104 600.576C715.381 591.746 723.503 587.536 735 588.039C739.032 588.216 744.856 591.098 748.687 589.382C752.681 587.593 754.557 578.573 756.902 575C765.42 562.022 781.849 549.685 782 533L772.601 519L755.776 496L740 480.738L727.17 475.407L712.232 458.053L703 448L700 448L700 451C691.305 448.361 696.786 436.674 685 434C683.601 425.685 667.208 416.669 660 413z"/><path style="fill:#a4a2a5; stroke:none;" d="M703 421C698.341 428.208 695.573 426.096 689 423C689.489 429.146 693.464 449.163 699 451C700.665 442.887 706.261 428.845 703 421z"/><path style="fill:#dbd5dc; stroke:none;" d="M326 425C328.164 435.365 337.462 444.349 343.64 452.714C352.612 464.861 362.706 480.305 369.294 494.015C372.638 500.974 376.894 515.798 385.015 518.562C391.265 520.691 399.287 515.441 405.025 513.687C427.274 506.883 445.024 491.612 465.004 480.82C472.518 476.761 484.428 473.493 489 466C470.356 466 452.572 464.267 435.09 457.194C418.046 450.298 401.928 438.253 384.715 432.513C374.029 428.95 360.36 425.83 349 425.054C341.348 424.531 333.536 426.244 326 425M1117 430C1116.04 442.568 1093.4 441.25 1084.42 445.286C1055.84 458.142 1021.78 471.278 1003.2 497.576C988.254 518.717 978.309 544.053 968.505 567.95C965.576 575.091 958.819 581.359 957.278 589C955.457 598.028 957 608.796 957 618C957 627.451 954.83 643.112 958.742 651.787C964.119 663.711 984.157 650.604 989.972 659.318C992.571 663.213 991 671.497 991 676C991 689.418 989.546 703.781 992 717C996.403 717.201 1004.23 722.11 1007.85 721.123C1011.59 720.101 1010.84 709.949 1011.09 707C1011.84 698.244 1014.84 689.881 1015 681C1015.07 677.26 1015.38 671.302 1018.56 668.693C1024.07 664.176 1042.09 669.076 1049 668.996C1064.68 668.816 1079.39 663.505 1094 658.352C1099.5 656.411 1104.13 652.639 1110 652C1104.39 666.491 1084.24 681.394 1071 688.751C1063.63 692.842 1053.73 692.242 1049 700C1066.91 700 1085.42 700.027 1103 696.514C1107.1 695.696 1112.84 697.285 1116.57 695.397C1120.24 693.531 1123.15 681.934 1127.09 678.184C1136.3 669.415 1150.45 663.374 1162 658.333C1179.06 650.884 1205.71 650.452 1218.95 636.985C1235.22 620.434 1244.78 600.131 1255.45 580C1258.76 573.757 1265.23 559.119 1272 557C1272 575.889 1273.18 595.225 1271.17 614C1270.58 619.493 1267.29 629.773 1274 632C1277 627.374 1284.94 628.008 1290 628C1303.92 627.978 1317.22 630 1331 630C1332.67 620.979 1329.79 616.141 1326.82 607.911C1321.49 593.136 1316.19 580.579 1308.75 566.95C1282.66 519.183 1238.41 479.342 1190.04 454.182C1175.14 446.435 1160.24 435.564 1143 434L1143 431L1117 430M613 433C603.041 448.595 586.977 458.564 577.826 475.286C572.619 484.799 565.902 495.626 562.724 506.015C560.902 511.975 561.355 520.914 556.697 525.54C550.605 531.589 539.78 533.261 532.286 537.216C521.088 543.126 509.693 546.173 498.001 550.656C489.461 553.93 481.596 560.13 474 565.035C456.923 576.061 433.214 591.304 433.109 615C433.078 622.054 437.532 629.162 441 635L443 635L455.054 615.6L467.715 611.819L482.91 608.585L509 620C511.236 626.991 521.166 630.807 528 630.985C545.61 631.446 563.431 628.277 581 629.039C587.38 629.316 599.212 632.795 604.701 628.397C612.962 621.775 618.195 599.121 620.166 589C627.265 552.538 631.201 512.83 623.999 476C621.923 465.381 621.012 454.452 618.593 444C617.454 439.075 618.118 435.318 613 433M884 603L876.206 621.089L870 650C888.777 645.59 903.676 625.354 914.684 610.999C926.5 595.59 940.257 578.423 947.275 559.961C953.169 544.456 953.985 525.255 957.511 509C960.792 493.872 966.676 478.621 967 463C958.702 467.341 952.458 487.364 947.892 495.83C934.03 521.534 918.823 546.805 904.704 572.093C899.356 581.673 894.441 597.908 884 603z"/><path style="fill:#cecace; stroke:none;" d="M654 506C648.38 517.611 650.296 534.337 649.985 547C649.757 556.332 648.046 565.658 648.001 575C647.96 583.463 649.605 593.706 647.698 601.961C646.63 606.581 642.651 610.467 641 615C651.127 606.334 650 596.207 650 584C650 567.926 649.647 550.997 651.17 535C651.987 526.413 655.739 514.246 654 506z"/><path style="fill:#a4a2a5; stroke:none;" d="M1111 515C1097.6 544.588 1086.13 572.913 1064.7 598C1055.63 608.621 1043.52 618.78 1033.3 628.161C1028.96 632.142 1023.1 633.72 1020 639C1033.11 637.257 1049.09 625.496 1058.99 617.171C1088.59 592.262 1113.89 555.422 1114 515L1111 515z"/><path style="stroke: none; fill: rgb(179, 179, 179);" d="M951 537C946.279 596.821 936.359 656.536 944 717C917.167 717 890.758 721.948 864 723.91C856.527 724.458 838.562 722.311 832.603 727.028C830.274 728.872 830.605 734.294 830.286 737C829.13 746.789 829.775 757.282 831.13 767C835.225 796.363 849.668 825.831 866.33 850.015C874.741 862.222 879.267 871.208 892 879C887.798 864.08 875.187 851.878 875 835L893 836L893 831C926.057 831 963.145 826.222 996 833L996 829L1000 830L1002.17 801L1006 740L1009 740C1009 762.147 1005.04 783.79 1005 806C1004.99 813.494 1003.02 824.302 1006.94 830.961C1010.85 837.586 1019.16 840.349 1026 843.035C1042.65 849.567 1059.33 850 1077 850L1077 853L1072 853L1073 856L1070 864L1074 864C1066.32 870.31 1053.88 876.104 1044 877.697C1035.36 879.089 1021.93 879.418 1015.83 886.839C1010.87 892.88 1021.66 895.342 1024.91 896.684C1037.32 901.811 1049.68 899 1063 899C1061.2 901.108 1053.92 904.691 1060 906C1056.04 910.774 1049.36 911.92 1044 914.843C1024.4 925.526 996.433 931.999 974 932C961.535 932.001 942.157 927.614 942 945L939 944L950 967L956 966C954.148 956.625 942.336 949.791 948.457 939.133C953.41 930.508 972.706 934 981 934C1003.99 934 1030.22 928.199 1050 915.883C1058.97 910.297 1067.96 908.191 1068 896L1049 896C1042.32 896 1033.32 897.543 1027 895.107C1024.05 893.969 1019.83 890.725 1022.47 887.303C1025.63 883.196 1036.18 882.523 1041 881.141C1054.31 877.326 1078.08 871.207 1086 859L1078 860C1078.45 854.089 1081.26 852.186 1087 852C1084.72 845.128 1070.99 848.132 1065 847.985C1050.23 847.624 1025.6 844.065 1015.09 832.686C1002.3 818.837 1006.62 799.06 1009.74 781.83C1013.54 760.81 1013.52 738.352 1016.7 717C1018.15 707.28 1018.57 687.833 1025.43 680.479C1033.56 671.763 1048.18 677.338 1058 679L1048 697C1067.81 694.408 1082.69 681.847 1096.46 668.71C1101.8 663.61 1108.2 659.585 1110 652C1103.68 652.344 1098.85 656.287 1093 658.352C1079 663.289 1064.97 668.311 1050 668.961C1042.5 669.286 1024.79 663.928 1018.56 668.067C1015.82 669.884 1015.21 675.039 1015.04 678C1014.49 687.803 1011.62 697.29 1011.04 707C1010.86 709.986 1011.38 719.196 1007.85 720.477C1004.65 721.639 996.099 717.087 992 717C990.329 703.779 991 690.323 991 677C991 672.099 992.594 663.784 990.397 659.318C988.842 656.159 983.876 657.001 981 657C974.446 656.997 965.607 658.425 960.434 653.362C956.605 649.615 958.284 642.823 957.714 638C955.779 621.595 957 604.52 957 588L956 588C951.417 607.249 956 630.287 956 650C949.698 650.057 947.65 651.31 945 657C938.989 631.75 944.32 599.286 948.134 574C949.658 563.901 955.032 546.609 951 537M1091 555L1084 570L1085 570L1093 555L1091 555z"/><path style="fill:#dbd5dc; stroke:none;" d="M824 681C828.622 679.591 830.757 675.685 834.286 672.595C837.578 669.713 842.354 667.612 844.686 663.791C848.066 658.252 847.542 649.273 848.169 643C850.075 623.939 849.849 603.487 844.169 585C840.978 574.613 828.527 553.524 814.282 557.479C805.585 559.894 805.792 573.27 808.814 579.961C813.819 591.041 826.493 592.24 830.816 603.17C832.799 608.185 831.668 613.754 832.17 619C833.115 628.892 835.996 640.103 833.526 650C830.987 660.177 824.338 670.416 824 681z"/><path style="fill:#a4a2a5; stroke:none;" d="M1268 558C1263.14 567.123 1256.09 574.227 1256 585C1261.76 583.838 1265.85 583.107 1269 589L1270 589L1270 558L1268 558z"/><path style="fill:#bcbabc; stroke:none;" d="M1081 573L1057 606C1067.47 598.621 1077.31 584.428 1083 573L1081 573z"/><path style="fill:#dbd5dc; stroke:none;" d="M812 634L795 578C786.163 582.156 771.37 597.85 773.562 608.957C774.289 612.639 780.222 615.192 782.985 617.228C791.907 623.805 800.217 633.25 812 634M641 584C640.729 590.293 639.735 597.956 635.606 602.976C633.649 605.355 630.296 608.112 627.782 604.793C624.743 600.782 628.31 593.765 627 589L626 589L619 623C625.886 622.232 640.63 610.694 642.566 603.96C644.282 597.993 643 590.183 643 584L641 584z"/><path style="fill:#cecace; stroke:none;" d="M730 657L730 661L731 661L738 637L734 638C731.3 624.441 719.683 603.217 744 603L743 609L744 609L749 590C731.949 588.607 718.288 585.277 706.765 601.424C695.416 617.326 711.145 653.582 730 657M1048 702L1088 699.911L1116 697L1116 696L1049 700L1050 697L1048 697L1057 685C1047.33 688.904 1037.03 701.558 1052 707.11C1064.13 711.61 1082.61 707.687 1095 706.184C1126.42 702.375 1160.13 696.306 1186.68 677.737C1199 669.119 1209.62 656.115 1220.92 645.985C1231.88 636.148 1239.94 621.605 1249.02 610.003C1250.99 607.488 1256.36 599.334 1260.3 602.661C1265.09 606.711 1263.14 618.621 1262.42 624C1260.01 642.166 1256.09 659.929 1254.05 678C1251.55 700.181 1251 721.627 1251 744C1251 754.83 1253.26 768.748 1249.17 779C1236.64 810.47 1215.94 839.888 1198.44 868.714C1191.74 879.762 1180.61 890.434 1177 903C1184.24 897.445 1188.47 888.523 1193.71 881.181C1207.35 862.02 1218.95 842.082 1231.33 822.089C1238.43 810.633 1249.56 797.283 1252.19 784C1259.18 748.811 1254.34 710.788 1258.17 675C1260.46 653.669 1267 633.803 1267 612C1267 606.317 1269.29 593.137 1260.99 592.287C1254.66 591.64 1249.95 599.464 1247.13 603.985C1238.84 617.291 1229.6 629.97 1218.96 641.501C1193.42 669.188 1161.55 689.216 1125 698.391C1116.14 700.616 1106.24 700.494 1097.17 702.255C1083.26 704.954 1060.37 711.886 1048 702z"/><path style="fill:#bcbabc; stroke:none;" d="M1064 614C1071.05 610.341 1076.82 603.679 1081 597L1064 614z"/><path style="fill:#cecace; stroke:none;" d="M443 635L440 634C442.413 642.83 450.613 640.131 457 637L457 636L451 635C456.411 623.294 465.144 618.357 478 618C483 617.861 496.661 625.251 498 619C501.859 622.683 502.195 625.92 501 631L542 632L542 631C530.522 631 515.364 631.976 509 620C499.666 618.312 492.316 610.177 482.91 608.313C464.296 604.626 448.994 619.727 443 635z"/><path style="fill:#dbd5dc; stroke:none;" d="M950 964C948.656 956.958 943.726 952.904 940.258 946.985C936.376 940.358 934.46 932.35 930.101 926.05C925.524 919.435 917.856 914.334 912.039 908.83C876.896 875.575 845.978 825.851 834.157 779.089C830.944 766.377 829.461 754.198 830.039 741C830.192 737.505 830.001 730.204 832.603 727.603C835.47 724.739 842.247 726.042 846 725.385C860.518 722.843 876.245 721.686 891 721.039C908.833 720.257 926.085 717 944 717L942 648L942 615C935.257 619.596 931.228 629.639 925.49 635.714C916.772 644.945 906.159 651.927 895.907 659.205C880.98 669.801 862.765 672.114 847.093 680.419C839.537 684.424 835.429 694.464 830.352 700.816C823.654 709.195 811.486 715.932 807.089 726.004C804.734 731.4 806.991 738.294 807 744C807.031 763.075 809.454 779.971 815.495 798C831.215 844.916 858.355 892.302 895.911 925.671C903.134 932.089 911.16 935.994 918.83 941.52C928.723 948.647 938.592 959.588 950 964M770 626L764 651C776.174 652.356 788.049 669.546 792.746 680.025C795.417 685.984 797.115 694.861 804.001 697.268C816.743 701.721 813.381 675.182 811.862 669C806.932 648.948 782.62 639.696 770 626z"/><path style="stroke: none; fill: rgb(152, 152, 152);" d="M953.225 662.028C946.157 666.287 949 682.096 949 689C949 716.471 953.758 742.102 963.09 768C965.123 773.64 973.986 797.201 982.695 792.914C990.686 788.979 987 767.373 987 760C987 742.283 986 724.673 986 707C986 696.973 987.847 684.826 985.296 675.089C982.304 663.673 964.188 655.42 953.225 662.028z"/><path style="fill:#dbd5dc; stroke:none;" d="M492 751C483.721 751.745 476.999 756.863 469.961 760.717C459.898 766.226 444.7 771.648 438.533 782.039C429.576 797.131 439.191 813.724 440.826 829C441.894 838.969 437.593 845.635 436 855C457.307 855 471.223 842.923 488 831.154C493.461 827.322 500.267 825.356 505.255 820.95C510.585 816.242 513.943 809.128 519.376 804.839C529.273 797.025 542.563 795.016 552 786.934C560.678 779.502 569.699 772.236 577.464 763.826C579.929 761.157 584.346 754.219 588.126 753.631C592.554 752.942 600.446 770.056 602 774L650 764.444L705 768L718 709C706.325 709 701.048 704.463 690.911 700.114C673.366 692.588 655.872 684.397 637.961 678.053C628.365 674.655 610.175 667.67 600.001 669.411C595.055 670.258 593.217 676.586 587.985 676.338C580.706 675.993 573.33 671.51 566 670.286C545.026 666.783 522.898 667.382 503 675.175C489.837 680.33 475.991 681.487 463 686.859C459.842 688.165 451.084 689.205 450.447 693.148C449.508 698.957 456.511 705.843 459.679 709.986C468.877 722.013 488.057 736.524 492 751z"/><path style="fill:#a4a2a5; stroke:none;" d="M1349 680C1329.33 693.736 1328.98 725.472 1321.06 746.911C1317.41 756.793 1310.89 765.147 1310 776C1316.32 774.025 1320.86 763.481 1324.25 758C1334.56 741.315 1350.57 722.641 1351 702L1348 702L1348 706C1329.78 702.011 1351.25 689.3 1349 680z"/><path style="fill:#bcbabc; stroke:none;" d="M449 698C452.042 714.796 478.449 725.813 477.941 743C477.388 761.685 445.07 764.993 437.015 779.04C426.938 796.616 434.868 814.844 436.66 833C437.211 838.577 435.047 844.348 435 850C451.367 836.622 432.015 806.044 436.529 788C440.948 770.331 470.668 760.804 485 753L482 752L483 741L488 744C480.457 727.822 462.171 712.181 451 698L449 698z"/><path style="fill:#a4a2a5; stroke:none;" d="M1272 698L1270 768L1273 762C1281.38 762.099 1283.1 767.539 1285 775L1286 775C1286 749.014 1282.11 722.942 1275 698L1272 698z"/><path style="fill:#dbd5dc; stroke:none;" d="M735 778C746.986 781.204 758.257 786.445 770 790.366C773.454 791.519 778.945 795 782.667 793.356C786.748 791.555 783.777 777.217 782.37 774C774.506 756.016 761.286 742.775 749 728C744.329 729.535 744.235 734.286 742.428 738.424C737.767 749.101 735.097 766.245 735 778z"/><path style="stroke: none; fill: rgb(179, 179, 179);" d="M1006 740L1002.17 800L1000 830L996 829L996 833L957 831L893 831L893 836L875 835C875.057 851.643 885.503 864.773 892 879L885 875C890.532 895.503 915.315 910.158 928.701 925.155C934.335 931.467 934.04 940.669 942 945C942.41 927.977 961.947 932 974 932C995.867 932 1025.01 926.343 1044 915.417C1049.12 912.473 1057.08 911.314 1060 906C1056.7 903.453 1061.33 901.508 1063 899C1056.25 899 1049.7 899.667 1043 899.961C1034.38 900.338 1027.89 898.174 1020.04 894.971C1017.07 893.758 1013.17 889.601 1016.51 886.669C1032.11 873.008 1059.52 880.885 1074 864L1070 864L1073 856L1072 853L1077 853L1077 850C1057.77 850 1038.86 849.335 1021.29 840.535C1015.17 837.471 1009.67 835.576 1006.39 828.996C1002.14 820.449 1004.95 805.221 1005.83 796C1007.58 777.605 1009 758.51 1009 740L1006 740M483 741L482 752L492 751C491.174 745.688 487.799 743.033 483 741z"/><path style="fill:#cecace; stroke:none;" d="M1011 751C1011 760.375 1010.96 770.658 1009.87 779.961C1007.7 798.493 999.87 823.391 1018.29 836.171C1030.35 844.535 1050.6 847.825 1065 847.996C1071.58 848.074 1083.37 845.409 1087 852C1080.82 852.073 1078.21 853.557 1078 860L1086 859C1074.91 870.372 1055.98 876.596 1041 880.86C1036.4 882.169 1023.14 883.287 1021.18 888.143C1019.17 893.089 1026.47 895.598 1030 895.906C1042.48 896.995 1055.47 896 1068 896C1067.84 909.279 1051.94 915.232 1041.29 919.444C1027.32 924.965 1011.27 932.835 996 933.911C983.115 934.819 962.839 929.586 951.214 935.804C946.282 938.442 946.257 946.178 947.394 950.985C949.379 959.37 962.673 973.304 971 976C967.681 967.43 946.712 951.637 953.032 941.344C957.106 934.708 980.722 937.421 988 936.911C1013.71 935.109 1036.57 925.413 1059 913.88C1064.48 911.059 1082.1 905.571 1076.67 896.225C1072.02 888.225 1049.29 892.194 1041 890C1043.63 884.28 1049.56 884.528 1054.91 882.525C1065.13 878.7 1074.41 871.849 1083.95 866.748C1088.24 864.456 1094.42 860.374 1094.79 854.911C1095.5 844.487 1081.55 846 1075 846C1055.71 846 1026.51 845.214 1014.27 827.532C1010.16 821.59 1011 813.819 1011 807C1011 793.998 1012 781.048 1012 768C1012 762.65 1013.09 755.969 1011 751z"/><path style="fill:#dbd5dc; stroke:none;" d="M611 784C611.486 787.963 615.235 800.844 620.289 801.168C626.129 801.543 634.464 784.82 635 780L611 784M673 780C675.914 790.455 689.392 797.135 699 795L699.918 785.563L673 780z"/><path style="fill:#cecace; stroke:none;" d="M1273 782C1270.45 789.671 1269.93 800.208 1262 804C1260.25 816.293 1251.18 825.12 1246.24 836.036C1244.73 839.372 1241.32 842.924 1242.45 846.867C1245.61 857.845 1262.75 841.193 1265.46 837.661C1271.31 830.042 1277.95 823.371 1280.95 813.961C1283.82 804.952 1282 793.382 1282 784L1273 782z"/><path style="fill:#dbd5dc; stroke:none;" d="M730 790C729.948 796.241 724.099 810.154 728.18 815.397C732.564 821.03 746.854 819.669 752.999 823.429C772.365 835.278 789.142 851.068 805.834 866.245C844.688 901.57 873.383 946.278 911.501 982.417C921.593 991.985 933.888 1004.73 946.129 1011.39C964.598 1021.44 989.402 1023 1010 1023C1007.87 1016.24 996.73 1012.07 990.999 1008.29C971.506 995.444 948.828 987.41 930 973.296C892.337 945.064 860.86 910.488 832.632 872.7C809.237 841.381 788.866 811.479 751.039 796.795C744.121 794.109 737.574 790.389 730 790z"/><path style="fill:#cecace; stroke:none;" d="M621 1007C550.65 1020.64 483.461 1053.93 422.001 1089.8C386.818 1110.33 360.353 1141.51 319 1150C319.801 1132.52 334.811 1119.38 344.012 1105.82C349.425 1097.83 353.293 1088.38 358.198 1080C362.23 1073.11 372.768 1062.77 370.667 1054.05C369.688 1049.99 364.264 1047.37 361 1045.3C350.26 1038.5 338.165 1033.27 327 1027.12C303.659 1014.27 286.176 993.312 273.451 970.884C265.793 957.39 258.197 945.695 255.261 930C253.362 919.848 245.78 900.978 254.533 892.318C262.4 884.535 279.36 899.966 286 904.211C310.827 920.08 347.333 921.216 376 919.961C448.951 916.766 507.86 875.777 552.1 820.286C559.581 810.902 571.03 801.018 577 791C566.254 794.653 560.207 806.683 553.384 815C543.249 827.353 529.883 839.097 518 849.83C499.43 866.603 479.088 885.081 457 897.1C425.745 914.106 385.927 919.302 351 916.911C322.584 914.965 298.396 907.239 274 892.757C267.565 888.937 256.496 882.901 250.742 891.109C243.623 901.261 250.194 920.203 252.576 931C262.018 973.802 290.624 1005.84 326 1029.97C336.32 1037.01 360.457 1042.57 365.958 1054C369.059 1060.45 361.979 1069.86 358.656 1075C347.594 1092.12 336.983 1109.58 324.884 1126C320.948 1131.34 309.109 1145.47 317.318 1151.99C322.556 1156.15 331.603 1152.49 337 1150.39C353.634 1143.88 367.946 1134.31 382 1123.42C431.223 1085.29 487.932 1055.89 546 1033.81C563.36 1027.21 581.056 1021.01 599 1016.15C605.731 1014.33 617.058 1013.27 621 1007z"/><path style="fill:#dbd5dc; stroke:none;" d="M698 831L685.875 818.966L651 795L625.731 825L614 834C611.032 823.427 597.001 811.137 590.22 802C588.044 799.069 585.344 794.079 581.036 794.462C576.614 794.855 575.27 799.88 573.316 803.015C568.629 810.538 561.914 816.94 556.101 823.576C539.213 842.852 520.131 860.628 500 876.49C490.499 883.976 473.527 892.249 467.028 902.455C463.226 908.426 466 923.028 466 930C466 958.959 473.416 986.542 476.075 1015C476.889 1023.72 478.037 1033.83 480.973 1042C481.715 1044.07 481.892 1048.39 484.344 1049.25C487.727 1050.44 495.911 1044.39 498.999 1042.94C513.402 1036.14 530.072 1032.19 543.74 1024.24C553.323 1018.67 555.792 1003.22 560.1 994.015C567.819 977.531 579.69 962.991 588.58 947C597.114 931.65 610.551 918.529 621.629 905.015C643.004 878.939 667.253 846.645 698 831z"/><path style="fill:#a4a2a5; stroke:none;" d="M973 798C974.209 807.03 987.309 822.54 996 825L992.397 802.067L976 798L973 798M1285 798C1281.56 816.469 1271.29 833.553 1258.38 847.384C1253.87 852.212 1238.81 861.283 1237.12 848.982C1236.23 842.543 1243.09 838.236 1244 832L1243 832L1222.87 861.83L1212 881C1217.3 877.805 1220.67 873.407 1227 871.714C1239.13 868.471 1247 878.176 1247 889C1253.38 885.74 1260.6 876.036 1262 869L1249 870L1249 869L1265 858L1266 853L1267 853L1268 856L1269 856L1268 848L1264 848C1271.14 833.672 1292.59 816.096 1285 798M607 821L614 834C619.878 833.537 623.175 829.38 625 824C617.038 826.106 614.186 824.554 607 821M705 832L709 839C696.649 836.715 690.469 845.517 681.741 852.469C677.816 855.595 673.585 855.717 672 861L661 868C659.527 873.173 655.955 875.428 651 877L648 875C641.151 884.316 631.958 891.568 624.554 900.424C601.808 927.631 577.096 958.538 562.806 991.001C558.195 1001.47 548.95 1012.49 548 1024C559.81 1022.36 570.895 1016.27 582 1012.68C602.629 1006.01 622.57 1001.54 641 989.907C658.221 979.034 671.844 964.011 689 953L689 952C666.199 952.979 641.46 951.607 619 955.804C612.121 957.089 599.6 958.389 597 966C579.389 960.564 608.884 943.91 615 941.576C634.878 933.987 655.595 928.563 677 927.089C688.878 926.271 702.946 931.684 714 927L711 933C727.368 924.042 741.913 905.145 754.999 892C761.065 885.907 767.369 875.969 776.999 876.084C783.79 876.165 788.342 883.123 792.112 888C801.952 900.731 808.85 915.006 819.562 926.911C845.337 955.556 871.309 980.698 906 998.359C918.364 1004.65 932.991 1012.86 947 1014C940.951 1001.96 924.968 994.608 915.325 985.555C900.586 971.717 884.57 958.358 872.47 942C862.954 929.136 850.478 907.047 835 901C832.135 904.675 830.245 899.718 829 897C824.908 896.543 817.586 889.118 817 885C811.62 883.503 803.556 876.382 802 871C792.859 868.569 789.295 858.82 779 860C782.401 853.029 774.552 851.357 770.005 847.727C756.964 837.315 747.343 834.372 731 831L729 835L726 828L714.982 833.444L705 832z"/><path style="fill:#dbd5dc; stroke:none;" d="M1218 935C1224.92 934.13 1230.37 929.811 1236.09 926.194C1248.79 918.166 1266 910.391 1274.54 897.714C1279.05 891.033 1281.35 882.822 1285.7 876C1290.42 868.603 1300.67 860.645 1302 852C1295.53 852.877 1291.58 856.186 1286 859.215C1276.45 864.404 1267.14 869.121 1259.43 877.174C1251.45 885.505 1246.75 896.115 1239.27 904.791C1232.43 912.716 1218.76 924.088 1218 935M1076 1049C1082.76 1034.99 1088.61 1022.16 1099.14 1010.62C1101.76 1007.75 1106.08 1000.37 1110.71 1001.18C1120.34 1002.85 1126.51 1016.91 1137 1019C1140.93 1013.06 1155.81 1001.26 1155.4 993.924C1155.09 988.249 1142.38 985.273 1138.29 983.279C1118.64 973.718 1097.77 964.756 1076 972C1076.57 964.806 1078.4 958.559 1081.38 952C1085.33 943.297 1093.58 926.16 1103.18 922.618C1107.5 921.026 1114.63 924.81 1119 925.625C1132.85 928.209 1152.98 934.774 1167 931.698C1177.49 929.396 1182.81 921.884 1188.96 914C1201.76 897.571 1213.82 879.279 1216 858C1209.57 859.904 1207.45 867.498 1203.71 872.576C1193.68 886.203 1184.72 908.008 1170 917.107C1153.77 927.14 1129.78 915.669 1113 912.996C1107.59 912.134 1102.68 908.557 1097.09 910.843C1088.25 914.456 1081.82 926.381 1076.81 933.911C1068.18 946.884 1054.21 966.486 1052.13 982.089C1050.89 991.396 1053.78 999.161 1054.87 1008.04C1056.49 1021.22 1062.17 1043.63 1076 1049z"/><path style="fill:#a4a2a5; stroke:none;" d="M851 876L866.389 898.083L872 905L870 910L875 910L875 911L869 913L860 902L859 902C859.87 913.147 875.446 925.464 882.911 932.946C908.711 958.808 936.65 980.208 969.169 997.566C979.979 1003.34 990.682 1008.66 1001.09 1015.33C1006.03 1018.49 1010.49 1018.32 1011 1025L1025 1025C1020.55 1015.98 1010.22 1013.61 1002.21 1009.52C999.261 1008.01 998.027 1004.88 995.544 1002.84C987.454 996.218 973.174 986.773 971 976C962.952 971.789 960.129 964.281 950 967C943.581 953.828 922.108 943.593 910.001 936.164C897.694 928.614 887.325 916.74 877.898 906C869.782 896.753 862.641 880.705 851 876z"/><path style="fill:#cecace; stroke:none;" d="M622 1008C635.856 1003.92 649.49 991.643 661 983.154C687.02 963.965 712.33 943.96 736 921.911C746.672 911.97 759.967 890.967 774 886.323C779.678 884.443 784.225 889.958 787.239 894C796.273 906.115 804.044 919.026 813.335 931C816.51 935.092 822.705 941.661 818.642 946.895C814.589 952.116 806.045 953.708 800 955.36C786.355 959.089 773.049 962.547 760 968.15C754.984 970.305 747.909 972.19 745 977C754.294 975.765 763.207 969.071 772 965.799C782.913 961.738 795.498 959.285 806.996 957.424C819.355 955.423 830.987 953.408 831 970C820.454 971.919 805.254 982.321 796 988L796 989L831 976C833.157 971.982 838.945 966.038 844 966.998C851.337 968.391 859.62 975.972 865.282 980.47C873.999 987.397 888.208 996.23 899 999L899 998C890.566 992.163 882.197 983.336 873 979.008C865.503 975.481 852.57 971.731 851 962C845.141 959.982 838.818 956.198 837 950C830.35 946.862 829.825 940.199 825.119 935.13C815.729 925.016 805.758 918.749 798.414 906C793.837 898.054 789.846 884.553 779.83 881.565C774.021 879.831 769.575 884.853 765.961 888.465C758.661 895.76 750.924 902.872 742.83 909.332C734.385 916.073 729.164 925.801 720.812 932.562C698.994 950.224 675.954 965.94 654.385 984.076C645.738 991.347 626.914 997.977 622 1008z"/><path style="fill:#dbd5dc; stroke:none;" d="M1169 937L1169 938L1191 951L1192 948C1186.57 942.349 1193.73 937.057 1199 934.235C1212.4 927.064 1227.24 913.701 1232.87 899C1234.43 894.917 1238.17 886.631 1234.26 882.858C1226.55 875.417 1217.96 888.061 1214.07 893.154C1202.32 908.582 1190.74 936.986 1169 937z"/><path style="fill:#a4a2a5; stroke:none;" d="M361 1038L361 1037L350 1030L342 1028L342 1025L325 1017C324.244 1012.41 321.44 1009.34 317 1008L317 1007C349.312 1004.3 382.159 1008 414 1008C425.26 1008 446.971 1003.81 456.981 1009.03C463.886 1012.63 468.503 1029.67 469 1037L472 1037C472.028 1046.9 477.322 1053.89 466 1059L466 1060C488.977 1056.37 479.361 1036.83 477.004 1021C471.074 981.162 465 942.457 465 902C427.48 918.764 390.658 924 350 924C348.444 929.558 343.811 933.911 341.029 939C336.462 947.352 333.709 954.944 331.138 963.995C330.184 967.354 327.888 970.254 324.014 969.508C318.762 968.497 315.898 962.132 313.34 958.089C305.051 944.992 304.454 926.964 295.987 914.39C292.765 909.605 281.973 906.063 277 902.834C273.346 900.461 261.686 891.261 257.228 892.748C253.661 893.938 254.945 902.173 255.015 905C255.341 918.301 261.231 929.41 263.66 942.015C269.499 972.306 295.999 996.293 318.715 1014.93C330.616 1024.7 345.011 1036.73 361 1038z"/><path style="fill:#cecace; stroke:none;" d="M1326 895.425C1308.04 897.87 1302.58 908.308 1290 919.83C1273.87 934.599 1257.29 948.963 1239 960.997C1230.89 966.332 1211.71 970.499 1209.4 981.004C1207.25 990.755 1217.12 999.016 1222.27 1006C1233.28 1020.94 1243.81 1036.67 1252.69 1053C1258.6 1063.87 1262.48 1074.62 1277 1072.81C1285.45 1071.76 1292.93 1065.49 1300 1061.2C1312.23 1053.78 1324.57 1047.07 1338 1042.05C1395.07 1020.72 1453.5 1002.47 1514 994.424C1532.52 991.962 1553.4 990.134 1572 992.576C1578.32 993.405 1590.24 994.557 1593.97 987.891C1598 980.695 1590.09 974.09 1585 970.428C1570.29 959.848 1553.39 951.358 1537 943.706C1487.8 920.731 1433.14 903.244 1379 897.831C1361.95 896.126 1343.1 893.098 1326 895.425z"/><path style="fill:#a4a2a5; stroke:none;" d="M1252 961L1249.44 977L1247 1014L1245.72 1025.09L1255 1037C1258.2 1020.61 1257.45 1007.95 1266 993L1285 992L1326 993.001L1443 995L1443 996L1424 1004L1424 1005C1432.28 1003.76 1439.89 999.793 1448 997.888C1465.46 993.788 1483.28 990.538 1501 988.114C1530.65 984.059 1560.24 986 1590 986C1588.55 980.856 1581.49 976.955 1577.12 974.073C1565.22 966.233 1547.45 953.049 1533 952L1533 949C1515.84 946.093 1499.34 935.494 1483 929.544C1448.15 916.853 1412.72 909.061 1376 904.714C1359.57 902.769 1332.82 896.866 1317.09 903.559C1305.42 908.525 1293.74 925.211 1285.24 934.374C1276.19 944.141 1263.11 953.656 1252 961z"/><path style="fill:#cecace; stroke:none;" d="M971 978C974.653 988.675 991.39 1002.66 1000.61 1009.05C1005.44 1012.4 1012.02 1010.49 1014 1017L1016 1014L1038 1021L1038 1023L1025 1023L1025 1024L1033 1024L1033 1025C1009.9 1030.98 988.025 1025.83 965 1024L965 1026C984.234 1026.84 1002.41 1031.23 1022 1031C1029.42 1030.91 1039.93 1025.91 1046.83 1028.92C1057.26 1033.46 1057.2 1044.32 1063.98 1051.52C1069.2 1057.07 1077.5 1059.3 1082 1052C1079.42 1052.4 1075.58 1055.41 1073.17 1054.7C1070.52 1053.91 1067.15 1048.66 1065.37 1046.54C1057.82 1037.61 1049 1020.49 1049 1009C1049 1000.37 1047.72 990.591 1049.26 982.089C1051.15 971.652 1058.03 962.174 1063.06 953.039C1075.44 930.546 1084.21 907 1113 907C1106.1 904.103 1092.24 905.29 1086.26 909.978C1080.95 914.141 1078.76 921.227 1074.94 926.576C1063.1 943.137 1049.48 960.945 1045.27 981.17C1043.6 989.212 1049.27 1006.72 1040.74 1011.82C1036.28 1014.48 1029.58 1011.01 1025 1010.09C1017.22 1008.53 1007.52 1006.55 1001.02 1001.79C991.938 995.141 981.659 981.08 971 978z"/><path style="fill:#bcbabc; stroke:none;" d="M1405 908L1405 909C1431.12 912.374 1458.54 920.245 1483 929.926C1498.57 936.086 1516.32 947.339 1533 949L1533 952C1554.52 955.14 1570.77 974.946 1590 983C1589.37 978.939 1587.97 977.15 1584 976C1583.12 970.646 1578.33 969.186 1574 966.6C1563.81 960.512 1552.76 954.954 1542.01 949.907C1528.93 943.762 1516.06 935.906 1502 931.684C1497.4 930.305 1492.56 931.551 1488 929.787C1462.01 919.733 1433.25 908.078 1405 908z"/><path style="fill:#dbd5dc; stroke:none;" d="M298 917C300.964 931.37 305.66 946.584 313.34 959.039C316.208 963.692 319.456 970.445 325.981 969.808C331.864 969.233 331.39 962.338 332.594 958C335.851 946.269 345.048 936.755 348 925L298 917z"/><path style="fill:#cecace; stroke:none;" d="M602 927L586 952L604 927L602 927z"/><path style="fill:#dbd5dc; stroke:none;" d="M597 966C601.263 958.488 612.356 957.528 620 955.765C642.336 950.611 667.093 951 690 951L709 931C679.555 929.492 651.564 926.24 623 937.754C613.169 941.717 602.118 946.13 594.228 953.47C589.56 957.813 590.492 964.896 597 966z"/><path style="fill:#cecace; stroke:none;" d="M1284 1120C1284 1114.04 1282.28 1103.83 1288.3 1100C1297.07 1094.41 1309 1101.51 1317.29 1104.63C1341.79 1113.87 1367.76 1121.27 1391 1133.53C1399.32 1137.92 1415.92 1139.66 1421 1148C1427.05 1149.65 1431.51 1156.26 1435.34 1160.99C1444.25 1171.98 1452.09 1184.05 1461.05 1194.96C1485.42 1224.66 1504.77 1258.22 1528.15 1288.58C1540.47 1304.6 1554.98 1318.76 1566.71 1335C1576.67 1348.8 1589.48 1359.29 1600.54 1371.9C1604.06 1375.91 1611.09 1380.67 1609.48 1386.83C1605.87 1400.7 1584.35 1384.98 1577 1384L1577 1379C1571.12 1378.47 1567.94 1375.04 1562.83 1372.67C1550.31 1366.87 1538.88 1360.4 1526.83 1353.48C1507.95 1342.64 1486.69 1334.88 1467.29 1324.54C1460.49 1320.91 1455.39 1315.45 1448.92 1311.53C1440.89 1306.67 1432.63 1301.21 1424 1297.49C1418.5 1295.12 1411.98 1294.7 1409 1289L1390 1281L1390 1278C1376.2 1274.77 1364.37 1265.41 1352 1259.1C1348.47 1257.3 1341.46 1253.21 1337.56 1256.03C1330.41 1261.2 1336.48 1280.13 1336.95 1287C1338.64 1311.87 1333.74 1335.89 1328.33 1360C1326.88 1366.48 1322.15 1381.26 1313.89 1382.1C1310.89 1382.4 1308.8 1377.97 1306 1377C1304.06 1361.05 1293.94 1347.01 1286.99 1332.83C1280.75 1320.1 1275.86 1308.32 1266.62 1297.17C1257.53 1286.18 1246.5 1280.64 1235.09 1273.28C1214 1259.68 1196.91 1248.97 1173.09 1241.17C1156.74 1235.81 1139.55 1230.42 1122 1232.17C1099.03 1234.47 1074.78 1248.14 1054.83 1258.83C1041.11 1266.18 1026.23 1271.89 1013.09 1280.22C1001.14 1287.8 991.087 1298.83 979.871 1307.21C971.965 1313.12 963.704 1316.7 956.301 1324.13C940.544 1339.95 929.231 1356.83 916.05 1374.56C908.426 1384.82 898.778 1394.11 893.591 1406C889.802 1414.68 880.995 1437.17 869.005 1435.13C859.263 1433.48 860.613 1418.53 859.439 1411C855.23 1384 848.467 1361.65 835.566 1337.25C809.829 1288.57 760.206 1259.29 714.015 1233.52C698.709 1224.99 683.071 1212.8 665 1211L665 1208C653.392 1207.41 641.533 1202.1 630 1200.19C603.419 1195.81 576.031 1192.86 549 1194.04C510.214 1195.74 470.976 1199.66 433.09 1208.3C405.086 1214.68 378.8 1228.72 351 1235C347.362 1241.93 335.625 1243.1 329 1246.71C308.887 1257.65 289.216 1267.72 270.961 1281.87C268.256 1283.97 251.067 1295.32 248.862 1287.89C246.038 1278.36 256.449 1270.86 261.576 1264.72C278.183 1244.8 295.489 1226.6 316.816 1211.91C340.306 1195.73 360.965 1173.79 382.633 1155.38C416.823 1126.33 453.939 1102.66 492.999 1082.1C497.944 1079.49 501.366 1075.29 506.09 1072.5C520.673 1063.9 538.482 1056.73 555 1053L555 1050C576.371 1048.3 594.078 1035.92 614 1030.3C631.42 1025.38 650.431 1031.91 667.961 1025.66C673.04 1023.85 675.195 1019.35 679.143 1016.15C686.896 1009.87 695.626 1004.09 704 998.595C714.553 991.675 737.681 987.031 744 976C724.98 981.44 705.096 994.472 689 1005.72C680.398 1011.73 671.846 1019.63 662 1023.52C647.769 1029.15 631.634 1024.95 617 1027.32C607.107 1028.93 598.303 1033.71 589 1037.11C574.461 1042.42 559.48 1046.46 545 1052.06C470.153 1081 409.299 1130.21 348 1180.39C317.594 1205.27 288.266 1229.77 261.83 1259C256.914 1264.44 233.189 1286.21 247.133 1293.5C256.203 1298.25 273.019 1285.77 280 1280.86C306.182 1262.44 334.277 1247.34 364 1235.45C430.964 1208.66 504.803 1192.97 577 1197.91C602.134 1199.63 626.701 1200.58 651 1208.34C672.869 1215.33 691.785 1225.03 712 1235.7C756.992 1259.45 803.494 1289.93 829.421 1335C837.969 1349.86 847.359 1367.49 852.09 1384C855.477 1395.81 855.587 1407.98 857.3 1420C858.484 1428.3 861.592 1439.61 872 1439.63C882.452 1439.65 886.156 1428.73 889.966 1421C899.253 1402.16 910.911 1383.19 924.325 1367C967.997 1314.29 1025.26 1271.47 1089 1245.9C1099.96 1241.51 1112.1 1235.96 1124 1235.09C1140.61 1233.87 1155.52 1238.61 1171 1244C1210.01 1257.58 1247.34 1281.53 1271.97 1315C1283.48 1330.62 1292.59 1349.04 1299.8 1367C1302.36 1373.37 1304.9 1384.51 1313 1385.57C1323.75 1386.97 1327.07 1372.8 1329.27 1365C1335.89 1341.58 1342.16 1315.49 1339.83 1291C1339.14 1283.78 1333.41 1264.59 1344.02 1261.95C1349.72 1260.53 1357.26 1266.21 1362 1268.7C1377.13 1276.64 1392.4 1284 1407 1292.94C1453.89 1321.64 1503.47 1345.99 1552 1371.78C1563.42 1377.85 1574.53 1384.51 1586 1390.53C1591.93 1393.64 1599.08 1397.49 1606 1395.57C1612.88 1393.65 1613.52 1385.59 1610.95 1380C1605.96 1369.12 1594.33 1359.42 1586 1351C1543.25 1307.84 1509.58 1254.48 1473.25 1206C1458.47 1186.27 1444.47 1158.7 1425 1143.39C1414.5 1135.14 1398.35 1131.71 1386 1126.94C1361.4 1117.43 1336.95 1107.89 1312 1099.27C1305.09 1096.89 1296.32 1093.79 1289 1095.71C1283.8 1097.07 1279.57 1104.48 1274 1101.24C1262.65 1094.62 1259.32 1077.92 1251.7 1068C1234.85 1046.06 1215.25 1025.43 1194 1007.75C1171.83 989.315 1144.86 972.997 1117 965C1109.87 962.954 1092.45 961.068 1094.9 950C1096.65 942.091 1105.87 933.731 1114 933.275C1133.5 932.181 1151.95 941.534 1172 939C1166.14 935.49 1158.54 937.484 1152 936.829C1137.2 935.35 1119.77 927.072 1105 932.424C1095.68 935.802 1083.88 949.437 1089.57 959.867C1092.35 964.952 1100.04 965.511 1105 967.214C1118.89 971.98 1134.86 975.025 1147.83 982.1C1186.03 1002.94 1217.69 1030.2 1243.37 1066C1253.1 1079.57 1260.95 1094.08 1270.98 1107.04C1274.29 1111.31 1278.55 1119.06 1284 1120z"/><path style="fill:#a4a2a5; stroke:none;" d="M1080 958L1076 972L1088 966L1080 958z"/><path style="fill:#a4a2a5; stroke:none;" d="M772 969C768.41 974.934 759.032 976.532 753 979.191C738.511 985.577 725.274 994.336 711 1001L711 1002L740 993L740 997L728 1001L729 1004L731 1004C737.205 997.664 752.477 1001.66 761 999L760 996L765 995C761.926 1007.81 743.483 1012.76 740 1027C759.17 1011.68 775.535 986.984 801 981C798.552 972.632 782.718 976.8 779 969L772 969z"/><path style="fill:#bcbabc; stroke:none;" d="M1250 969C1245 984.764 1245 1003.57 1245 1020C1235.3 1010.4 1230.95 995.481 1218 989L1234.38 1013.09L1252.92 1045L1262 1064C1265.41 1065.69 1268.05 1069.24 1272 1069.68C1287.36 1071.42 1303.65 1052.88 1316.17 1046.03C1327.62 1039.77 1341.08 1036.68 1353.04 1031.84C1405.27 1010.66 1461.7 996.89 1518 991.171C1542.28 988.704 1567 992.064 1591 988L1591 983L1590 983L1590 986C1546.35 986 1503.95 985.217 1461 994.517C1416.41 1004.17 1375 1023.14 1331 1034.47C1316.74 1038.15 1300.35 1050.61 1288.04 1058.59C1282.23 1062.36 1278.32 1067.51 1271 1068C1269.91 1051.04 1250.95 1040.16 1246.25 1025.09C1240.99 1008.24 1255.09 985.606 1250 969z"/><path style="fill:#bcbabc; stroke:none;" d="M562 989L557 1003L558 1003L564 989L562 989z"/><path style="fill:#cecace; stroke:none;" d="M753 1188C750.016 1182.33 746.087 1182.11 741.455 1178.44C728.006 1167.78 714.213 1160.89 698.831 1153.25C692.967 1150.34 682.613 1148.04 679.319 1141.96C676.272 1136.33 680.2 1131.55 682.65 1126.71C685.03 1122.02 685.363 1116.61 688.199 1112.09C691.043 1107.56 695.624 1104.64 698.384 1100C705.408 1088.19 714.556 1078.09 722.536 1066.96C734.333 1050.52 744.323 1033.95 758.549 1019.38C769.397 1008.26 786.343 1001.54 796 990C780.923 993.23 772.356 1004.71 761.625 1014.25C735.437 1037.53 718.177 1066.43 696.802 1093.58C687.912 1104.87 672.713 1128.89 677.92 1143.99C681.133 1153.3 689.579 1152.29 696.83 1155.86C708.6 1161.67 720.646 1167.12 731.845 1173.98C739.17 1178.47 744.959 1184.5 753 1188z"/><path style="fill:#888789; stroke:none;" d="M1266 993C1257.64 1002.89 1250.89 1026.17 1256.17 1039C1260.09 1048.51 1268.82 1056.96 1271 1067L1288 1057.51L1319.04 1040.81L1356 1028.76L1403.99 1011.48L1428.98 1002.56L1443 996C1428.96 989.942 1406.97 994.818 1392 994.996C1359.31 995.385 1326.55 994.318 1294 992.089C1284.72 991.454 1274.88 994.551 1266 993M376 1169L410 1146L409 1149L410 1150C431.071 1144.81 454.376 1147.1 476 1147C489.013 1146.94 502.013 1144.59 515 1147C522.105 1139.11 541.994 1143 552 1143C585.253 1143 618.633 1142 652 1142L654 1138L653 1142L658 1142L657 1138L663 1138C662.714 1144.68 661.383 1148.32 669 1150L665 1148C666.964 1131.97 679.319 1115.12 688.053 1101.96C706.29 1074.48 726.043 1047.98 743.249 1020.13C748.665 1011.37 763.628 1005.17 765 995L760 996L761 999C754.106 1000.42 734.674 998.333 731 1004L729 1004L728 1001L740 997L740 993C732.258 993.338 726.935 997.529 720 1000.41C716.414 1001.89 712.566 1001.5 709 1002.84C699.559 1006.39 691.009 1013.66 682.884 1019.48C677.034 1023.68 670.737 1031 664 1033.4C656.126 1036.21 645.408 1033.78 637 1035.25C610.402 1039.91 583.381 1046.8 558 1056.12C549.513 1059.24 538.829 1061.21 531.317 1066.39C523.31 1071.91 522.569 1091.3 520.594 1100C519.83 1103.37 521.077 1109.86 517.581 1111.91C514.225 1113.89 511.324 1109.19 509.707 1107C506.443 1102.57 499.066 1085.22 492.892 1085.49C484.404 1085.86 475.571 1096.08 468 1099.59C443.989 1110.71 421.312 1130.68 400.826 1147.29C393.052 1153.6 380.54 1159.8 376 1169z"/><path style="fill:#a4a2a5; stroke:none;" d="M1157 993C1149.03 1007.98 1124.75 1023.22 1150 1035C1143.23 1023.93 1148.81 1024.89 1154.83 1016.46C1156.69 1013.85 1156.2 1009.41 1160.18 1008.66C1164.34 1007.87 1165.17 1011.48 1163 1014C1166.8 1024.61 1174.23 1043.84 1157 1044L1157 1045L1162 1052L1178 1051C1177.94 1034.89 1169.8 1019.18 1176 1003L1157 993z"/><path style="fill:#888789; stroke:none;" d="M317 1007L317 1008L325 1017L342 1025L342 1028L350 1030C352.677 1037.47 367.187 1040.58 374 1042.97C376.544 1043.86 382.444 1043.71 382.901 1047.23C383.889 1054.81 372.358 1066.86 368.66 1073C359.484 1088.24 350.725 1104.71 339.95 1118.9C333.786 1127.02 321.933 1137.98 320 1148C340.4 1145.46 359.094 1129 374.225 1116.92C390.673 1103.78 410.063 1093.18 428.09 1082.28C441.338 1074.28 462.224 1067.47 472.486 1055.7C476.793 1050.76 472.052 1042.85 472 1037L469 1037C468.79 1030.06 464.41 1012.55 457.942 1009.03C448.419 1003.84 426.812 1008 416 1008C409.013 1008 402.447 1005.56 395.961 1005.43C379.341 1005.1 362.606 1007 346 1007C336.617 1007 326.195 1005.48 317 1007z"/><path style="fill:#dbd5dc; stroke:none;" d="M1175 1006L1178 1051L1167 1051C1168.95 1063.66 1184.71 1075.37 1190.25 1087.29C1192.58 1092.29 1194.34 1102.85 1198.43 1106.4C1202.53 1109.94 1210.04 1107.24 1214.94 1109.77C1221.9 1113.35 1225.86 1127.74 1227 1135L1230 1135L1237.24 1162L1244.96 1205L1244.74 1243L1241.69 1269.99L1264 1292L1268 1292C1268.21 1285.47 1271.92 1279.98 1273.55 1273.71C1275.98 1264.4 1276.54 1253.59 1276.96 1244C1278.3 1213.38 1274.46 1184.52 1268.38 1155C1265.51 1141.06 1264.03 1126.69 1259.31 1113.17C1254.58 1099.61 1245.76 1086.79 1239.28 1074C1228.89 1053.49 1213.43 1037.97 1197.05 1021.96C1191.54 1016.58 1182.65 1007.26 1175 1006z"/><path style="fill:#888789; stroke:none;" d="M1163 1014C1167 1010.81 1162.63 1006.67 1158.57 1008.86C1155.97 1010.27 1156.27 1013.49 1154.83 1015.71C1151.78 1020.41 1143.03 1022.15 1146.02 1029.71C1148.22 1035.25 1160.43 1051.08 1166.97 1041.57C1169.8 1037.46 1167.13 1030.36 1166.89 1025.83C1166.66 1021.38 1164.99 1017.9 1163 1014z"/><path style="fill:#dbd5dc; stroke:none;" d="M1016 1014C1017.73 1024.03 1030.36 1023 1038 1023L1038 1021L1016 1014z"/><path style="fill:#a4a2a5; stroke:none;" d="M549 1058L549 1059L636 1036C622.926 1030.51 610.885 1037.44 599 1042.03C582.711 1048.32 565.386 1051.63 549 1058M1271 1067L1271 1068C1282.27 1067.67 1294.01 1055.26 1304 1050C1293.51 1046.68 1281.28 1065.63 1271 1067z"/><path style="fill:#888789; stroke:none;" d="M1234 1062C1240.59 1087.68 1260.65 1108.58 1266.61 1135C1271.69 1157.55 1276.95 1182.86 1277.96 1206C1278.92 1227.89 1275.28 1250.63 1278 1272L1280 1272L1281 1265L1278 1265L1279 1245L1280 1245L1281 1252C1286.24 1246.87 1284 1235.89 1284 1229C1284 1210.8 1279.8 1188.63 1284 1171L1279 1145L1284 1150C1282.31 1136.99 1275.57 1126.93 1269.17 1115.91C1262.93 1105.16 1258.13 1093.78 1251.46 1083.17C1247.26 1076.49 1241.1 1065.47 1234 1062z"/><path style="fill:#dbd5dc; stroke:none;" d="M520 1111C520.001 1101.78 521.76 1091.89 524.298 1083C525.066 1080.31 528.641 1074.24 526.867 1071.62C524.276 1067.8 513.844 1075.32 511.17 1076.79C507.741 1078.67 501.176 1081.56 499.643 1085.38C495.504 1095.67 510.84 1110.71 520 1111z"/><path style="fill:#a4a2a5; stroke:none;" d="M1251 1096L1255 1106L1256 1106L1251 1096z"/><path style="fill:#706e71; stroke:none;" d="M1289 1102C1290.24 1113.78 1298.51 1125.03 1302.17 1136C1310.6 1161.31 1316.31 1187.28 1324.17 1213C1325.39 1216.99 1335.44 1232.58 1336 1228L1337 1228C1341.41 1239.68 1360.35 1232.02 1370 1235L1369 1237C1372.64 1241.79 1371.62 1249 1377.21 1252.93C1384.81 1258.26 1396.31 1255.66 1405 1256.04C1426.56 1256.98 1448.41 1260.49 1470 1258.91C1478.77 1258.27 1487.47 1251.82 1496 1253C1495.03 1249.26 1492.46 1242.08 1487.87 1241.64C1478.5 1240.76 1466.78 1247.48 1457 1247.96C1433.52 1249.1 1409.69 1244 1386 1244L1390 1233L1382 1239C1388.7 1226.06 1400.01 1215.82 1409.54 1205.1C1417.92 1195.69 1426.63 1184.5 1439 1180C1438.32 1169.32 1428.43 1154.13 1418.99 1149.11C1394.99 1136.37 1367.43 1128.13 1342 1119.04C1324.95 1112.95 1307.23 1103.44 1289 1102z"/><path style="fill:#bcbabc; stroke:none;" d="M510 1108C512.519 1111.72 514.523 1112.85 519 1113L519 1111L510 1108z"/><path style="fill:#888789; stroke:none;" d="M1198 1109L1208 1140L1209 1140C1208.75 1138.06 1205.36 1126.93 1209.13 1127.63C1212.05 1128.17 1213.41 1132.51 1214.74 1134.71C1219.31 1142.29 1223.4 1153.32 1225.19 1162C1227.21 1171.76 1232.96 1180.15 1234.56 1190C1238.43 1213.82 1236 1238.07 1236 1262L1239 1262L1239 1268L1240 1268C1246.1 1237.06 1245.43 1204.1 1239.62 1173C1237.27 1160.36 1231.14 1147.69 1230 1135L1227 1135L1219 1111L1198 1109z"/><path style="fill:#a4a2a5; stroke:none;" d="M1355 1123L1355 1124L1368 1128L1355 1123z"/><path style="fill:#706e71; stroke:none;" d="M1057 1237L1059 1242L1032 1254L1032 1255L1036 1257L1040 1256L1039 1252L1041 1254L1042 1254L1047 1252L1040 1259L1040 1260C1051.92 1256.91 1064.33 1247.14 1075 1241.08C1087.43 1234.02 1105.91 1227.38 1120 1225.3C1138.24 1222.61 1152.02 1231.46 1169 1233L1169 1232L1163 1228L1205 1233.91L1225.6 1233.03L1231 1254L1228 1255L1230 1260L1220 1257L1239 1269L1239 1262L1236 1262C1236 1237.75 1238.48 1213.15 1234.56 1189C1232.83 1178.34 1227.42 1167.35 1224.23 1157C1221.75 1148.97 1218.34 1140.19 1214.2 1132.91C1213.15 1131.06 1210.78 1125.24 1207.64 1127.18C1204.99 1128.81 1209.07 1141.23 1209.66 1144C1212.55 1157.65 1214.41 1171.37 1217 1185C1217.79 1189.14 1220 1198.09 1215.68 1200.97C1211.79 1203.57 1203.5 1202 1199 1202C1187.93 1202 1176.91 1203.5 1166 1205.46C1142.25 1209.74 1117.11 1212.25 1094.17 1219.83C1081.36 1224.07 1069.09 1231.1 1057 1237z"/><path style="fill:#bcbabc; stroke:none;" d="M1264 1129L1270 1162L1271 1162C1270.61 1153.17 1269.49 1135.91 1264 1129z"/><path style="fill:#706e71; stroke:none;" d="M652 1138L652 1142C617.956 1142 583.924 1143 550 1143C541.501 1143 519.849 1139.09 515 1147C502.715 1144.08 489.413 1146.68 477 1146.99C455.539 1147.51 430.643 1143.47 410 1150L409 1149L410 1146C396.559 1147.68 389.968 1160.75 379.671 1167.43C344.094 1190.53 310.654 1220.35 280.911 1251.04C274.092 1258.08 267.889 1265.66 261.08 1272.71C256.265 1277.7 250.859 1280.96 249 1288C263.841 1285.65 279.634 1268.7 292 1260.59C309.461 1249.15 330.603 1240.99 349.729 1232.49C355.326 1230.01 360.068 1226.28 366.001 1224.36C457.959 1194.52 554.301 1173.6 650 1199.29C674.801 1205.95 697.206 1217.63 719.83 1229.18C729.65 1234.2 738.424 1242.52 749 1246L746 1242L746 1241L752 1245C757.184 1245.66 763.074 1246.76 765 1252L771 1252L770 1254L800 1251L800 1245L799 1242L810 1251C806.181 1239.77 791.851 1229.15 783 1221.58C759.485 1201.47 735.375 1180.04 708 1165.63C697.789 1160.25 686.751 1156.93 676.039 1152.51C672.683 1151.12 666.016 1150.23 663.693 1147.44C661.784 1145.14 662.945 1140.75 663 1138L657 1138L658 1142L653 1142L654 1138L652 1138M1279 1145L1284 1171C1279.05 1187.75 1284 1211.42 1284 1229C1284 1236.63 1285.63 1245.56 1281 1252L1280 1245L1279 1245L1278 1265L1281 1265L1280 1272L1278 1272L1278 1267C1274.26 1269.36 1267.58 1290.29 1268.78 1295C1269.63 1298.37 1272.94 1301.29 1275 1304L1276 1304L1275 1297C1281.73 1295.05 1280.32 1289.69 1282.46 1284.17C1288.16 1269.46 1287.72 1254.75 1291.4 1239.99C1292.96 1233.74 1297.73 1228.58 1297 1222L1302 1223L1301 1226C1309.4 1219.61 1301.65 1205.89 1300 1198L1301 1198L1307 1212L1308 1212C1305.85 1197.45 1296.82 1183.66 1291.81 1170C1288.49 1160.91 1287.65 1151.11 1279 1145z"/><path style="fill:#a4a2a5; stroke:none;" d="M1213 1162C1213 1171.44 1218.82 1188.23 1212.49 1196.39C1206.54 1204.03 1185.83 1200.88 1177 1202L1177 1203L1205 1202L1216.4 1200.97L1217.96 1191L1213 1162M357 1184C363.465 1181.09 372.414 1173.11 376 1167C368.824 1170.18 360.898 1177.19 357 1184z"/><path style="fill:#888789; stroke:none;" d="M1437 1172L1439 1180C1420.86 1184.15 1404.8 1208.29 1393.69 1222C1389.49 1227.17 1384.2 1232.64 1382 1239L1392 1234C1399.93 1220.39 1413.78 1207.6 1426 1197.81C1430.47 1194.23 1442.54 1189.72 1444.82 1184.61C1446.66 1180.49 1439.83 1174.22 1437 1172z"/><path style="fill:#a4a2a5; stroke:none;" d="M1294 1174C1305.63 1210.94 1328.31 1243.61 1330 1283L1331 1283C1331 1269.34 1321.51 1248.75 1338 1244L1344 1250C1333.8 1225.82 1317.94 1204.02 1315 1177L1314 1177L1314 1185C1313.98 1186.65 1314 1188.36 1313.66 1189.98C1310.48 1204.86 1298.89 1182 1297.37 1178.06C1296.56 1175.93 1295.85 1175.17 1294 1174M1240 1176L1242 1193L1243 1193L1240 1176M1274 1181L1276.99 1209L1274 1272L1275 1272C1277.69 1251.18 1278.01 1231.03 1278 1210C1278 1201.91 1278.17 1187.96 1274 1181z"/><path style="fill:#888789; stroke:none;" d="M487 1192L487 1193L579 1189L554 1188L487 1192z"/><path style="fill:#dbd5dc; stroke:none;" d="M1386 1244C1420.27 1239.67 1452.12 1251.91 1486 1241L1475.42 1224L1457.49 1199.04L1444.96 1188.5L1428 1197.25L1398.05 1227L1386 1244z"/><path style="fill:#a4a2a5; stroke:none;" d="M562 1189L562 1190L612 1192.21L635 1196C622.628 1189.69 607.415 1191.31 594 1190.99C583.287 1190.72 572.787 1189 562 1189M749 1193L755 1198L749 1193M1243 1194L1244 1246L1245 1246C1245 1230.89 1249.26 1207.93 1243 1194z"/><path style="fill:#5e5c5f; stroke:none;" d="M1300 1198C1301.27 1207.41 1308.43 1217.47 1301 1226L1302 1223L1297 1222C1296.84 1228.49 1292.42 1233.7 1291.19 1240C1288.3 1254.8 1288.2 1268.84 1282.46 1283.29C1280.16 1289.07 1281.4 1293.92 1275 1297C1275.86 1307.76 1283.06 1315.21 1288.63 1324C1298.38 1339.4 1312.21 1361.51 1313 1380C1324.25 1373.1 1324.18 1348.53 1326.26 1337C1333.66 1295.93 1331.08 1258.63 1311.81 1220.96C1308.02 1213.57 1305.69 1204.16 1300 1198z"/><path style="fill:#a4a2a5; stroke:none;" d="M384 1219L384 1220L452 1201C445.944 1198.64 435.985 1203.06 430 1205C414.611 1209.99 399.082 1213.03 384 1219z"/><path style="fill:#888789; stroke:none;" d="M761 1203L773 1213L761 1203M1135 1209L1135 1210L1182 1204C1170.65 1199.24 1146.75 1206.17 1135 1209z"/><path style="fill:#a4a2a5; stroke:none;" d="M1110 1217L1135 1211C1128.95 1208.53 1114.18 1211.95 1110 1217z"/><path style="fill:#888789; stroke:none;" d="M285 1247C296.575 1238.85 311.488 1225.36 320 1214C308.837 1217.87 289.947 1236.39 285 1247z"/><path style="fill:#a4a2a5; stroke:none;" d="M694 1216L694 1217L701 1220L701 1219L694 1216z"/><path style="fill:#888789; stroke:none;" d="M1080 1226L1104 1218C1096.12 1214.7 1085.28 1220.12 1080 1226M1328 1220L1339 1243L1340 1243C1339.06 1235.3 1333.94 1224.97 1328 1220M359 1228L374 1223C369.629 1221.78 361.797 1224.42 359 1228M1101 1231L1101 1232L1124 1227.04L1162 1231C1146 1220.95 1117.24 1222.83 1101 1231z"/><path style="fill:#a4a2a5; stroke:none;" d="M712 1226C718.323 1233.13 730.696 1239.98 740 1242L740 1241L712 1226z"/><path style="fill:#888789; stroke:none;" d="M1064 1232L1064 1233L1079 1227C1074.07 1225.38 1068.26 1229.63 1064 1232z"/><path style="fill:#5e5c5f; stroke:none;" d="M1163 1228C1170.17 1239.04 1189.47 1235.03 1196 1246L1230 1260L1228 1255L1231 1254C1230.1 1249.62 1229.67 1235.72 1226.37 1233.03C1221.93 1229.4 1210.16 1233.34 1205 1233.83C1190.27 1235.23 1177.12 1229.42 1163 1228M1336 1228C1337.4 1249.94 1356.65 1256.24 1374 1264.22C1383.74 1268.7 1393.36 1275.22 1403 1280.23C1411.35 1284.58 1420.47 1291.95 1430 1293C1433.56 1304.56 1454.51 1309.1 1463.75 1315.36C1488.44 1332.08 1518.23 1341.64 1544 1357.17C1558.17 1365.71 1578.33 1380.63 1595 1382C1596.49 1387.32 1600.97 1388.32 1606 1389C1603.15 1376.62 1587.89 1366.58 1579.75 1357.42C1558.78 1333.87 1540.76 1308.9 1520.82 1284.74C1514.48 1277.05 1509.41 1268.62 1503.08 1260.99C1500.81 1258.24 1498.58 1253.58 1494.87 1252.62C1487.42 1250.67 1476.12 1258.59 1468 1258.96C1447.31 1259.9 1426.66 1256.94 1406 1256.04C1397.29 1255.66 1387 1257.87 1379.04 1253.47C1372.09 1249.62 1373.85 1241.23 1369 1237L1370 1235C1357.82 1229.9 1346.47 1238.76 1336 1228z"/><path style="fill:#888789; stroke:none;" d="M1042 1244L1064 1234C1057.98 1232.35 1045.78 1239.48 1042 1244M1081 1238L1081 1239L1099 1234C1093.19 1231.63 1086.32 1235.6 1081 1238z"/><path style="fill:#cecace; stroke:none;" d="M891 1364L904.597 1349.21L939.556 1309.29L961.826 1291.44L1011 1256.77L1046 1236C1040.83 1233.9 1035.47 1237.14 1031 1239.75C1021.12 1245.52 1011.31 1251.28 1001.71 1257.5C968.495 1279.02 935.361 1304.44 910.986 1336.2C904.942 1344.07 893.667 1354.61 891 1364z"/><path style="fill:#888789; stroke:none;" d="M1175 1236L1175 1237L1196 1245C1192.18 1239.63 1181.3 1236.93 1175 1236M1320 1237L1323 1249L1324 1249L1320 1237z"/><path style="fill:#a4a2a5; stroke:none;" d="M296 1259L296 1260L320 1247.86L337 1238L296 1259z"/><path style="fill:#5e5c5f; stroke:none;" d="M876 1401L865 1341L862 1341L856 1320L853 1320C852.083 1310.79 846.155 1303.87 841.77 1296C834.32 1282.62 827.535 1270.63 817.674 1258.75C813.114 1253.26 805.852 1243.93 799 1242L800 1245C797.356 1246.45 798.914 1248.57 800 1251L770 1254L771 1252L765 1252C763.773 1246.38 757.21 1245.35 752 1245L746 1241L746 1242C753.928 1250 763.41 1254.15 771.961 1261.25C801.763 1286.01 832.567 1312.36 847.63 1349.04C851.496 1358.45 857.438 1367.66 860.63 1377.17C864.168 1387.71 864.139 1399.09 865.576 1410C866.252 1415.13 864.757 1429.54 870.34 1432C875.976 1434.49 877.618 1425.42 878.914 1422C884.03 1408.51 891.881 1395.16 900.261 1383.42C926.072 1347.27 956.358 1314.39 993 1288.88C1005.8 1279.98 1018.6 1271.12 1032 1263.13C1037.43 1259.89 1044.85 1258.62 1047 1252L1042 1254L1041 1254L1039 1252L1040 1256L1036 1257L1032 1255L1032 1254L1059 1242L1059 1238C1042.9 1239.04 1024.97 1251.98 1012.05 1260.69C977.719 1283.83 941.021 1309.74 915.861 1343.29C905.221 1357.47 895.804 1372.68 885.094 1386.71C881.555 1391.35 881.264 1397.88 876 1401z"/><path style="fill:#888789; stroke:none;" d="M1071 1244L1081 1240C1076.93 1238.8 1073.65 1240.97 1071 1244z"/><path style="fill:#a4a2a5; stroke:none;" d="M998 1270L1046 1241C1040.66 1239.53 1036.16 1244.27 1031.91 1246.89C1021.95 1253.02 1003.45 1259.06 998 1270M1389 1243L1389 1244L1414 1244L1389 1243M1434 1246L1434 1247L1462 1248L1434 1246M268 1265L284 1247C277.288 1250.39 271.089 1258.22 268 1265z"/><path style="fill:#888789; stroke:none;" d="M1200 1247L1200 1248L1214 1255C1210.99 1250.22 1205.46 1247.85 1200 1247M1347 1251L1347 1252L1364 1260L1347 1251M1498 1253L1504 1262L1498 1253M283 1268L299 1258C293.406 1257.07 285.614 1263.34 283 1268M764 1257L764 1258L776 1265L764 1257M1011 1277C1018.44 1274.54 1034.01 1266.69 1038 1260C1029.26 1262.59 1016.8 1269.98 1011 1277M1370 1263L1370 1264L1379 1267L1370 1263M264 1279L264 1280L280 1271L264 1279z"/><path style="fill:#a4a2a5; stroke:none;" d="M782 1270L789 1276L782 1270z"/><path style="fill:#888789; stroke:none;" d="M1510 1271L1515 1277L1510 1271z"/><path style="fill:#a4a2a5; stroke:none;" d="M1272 1275L1271 1285L1272 1285L1274 1275L1272 1275z"/><path style="fill:#888789; stroke:none;" d="M979 1300C989.217 1295.16 1003.82 1285.69 1011 1277C1001.57 1280.13 984.068 1291.38 979 1300z"/><path style="fill:#a4a2a5; stroke:none;" d="M1516 1278L1523 1287L1516 1278z"/><path style="fill:#888789; stroke:none;" d="M1401 1279L1410 1285L1410 1284L1401 1279z"/><path style="fill:#a4a2a5; stroke:none;" d="M794 1280L804 1289L794 1280z"/><path style="fill:#888789; stroke:none;" d="M963 1296C970.628 1292.39 977.903 1286.74 983 1280C975.771 1283.04 967.088 1289.23 963 1296z"/><path style="fill:#a4a2a5; stroke:none;" d="M835 1283L843 1297L844 1297L835 1283z"/><path style="fill:#888789; stroke:none;" d="M1331 1283L1331 1317L1332 1317L1331 1283M1410 1285L1410 1286L1415 1287L1410 1285M1416 1288L1436 1300L1436 1299L1430 1293L1416 1288z"/><path style="fill:#a4a2a5; stroke:none;" d="M804 1289L812 1297L804 1289z"/><path style="fill:#888789; stroke:none;" d="M840 1293L849 1308L840 1293z"/><path style="fill:#706e71; stroke:none;" d="M943 1314C950.397 1310.61 958.843 1303 963 1296C956.324 1299.11 946.71 1307.59 943 1314z"/><path style="fill:#888789; stroke:none;" d="M946 1329L978 1302L968 1307.43L946 1329M819 1304L825 1312L819 1304M1535 1304L1541 1312L1535 1304M1455 1310C1457.42 1313.97 1460.42 1315.5 1465 1316L1465 1315L1455 1310M851 1311L855 1320L851 1311M825 1312L830 1318L825 1312M928 1329L941 1316L928 1329z"/><path style="fill:#706e71; stroke:none;" d="M1544 1316L1549 1322L1544 1316z"/><path style="fill:#888789; stroke:none;" d="M830 1318L834 1324L830 1318M1330 1318L1326 1342L1327 1342L1330 1318z"/><path style="fill:#a4a2a5; stroke:none;" d="M1471 1319L1478 1324L1471 1319M856 1321L859 1330L860 1330L856 1321z"/><path style="fill:#706e71; stroke:none;" d="M1552 1326L1557 1332L1552 1326z"/><path style="fill:#a4a2a5; stroke:none;" d="M1330 1328L1318 1374L1319 1374L1328.46 1341L1330 1328z"/><path style="fill:#706e71; stroke:none;" d="M858 1329L862 1341L863 1341C862.881 1335.95 861.908 1332.36 858 1329z"/><path style="fill:#888789; stroke:none;" d="M944 1329L912 1368L930.12 1347.29L946 1329L944 1329M1291 1329C1293.26 1335.89 1297.9 1348.96 1304 1353C1301.15 1345.4 1297.27 1334.25 1291 1329z"/><path style="fill:#a4a2a5; stroke:none;" d="M917 1342L918 1342L926 1331C921.228 1333.27 918.592 1337.01 917 1342M1557 1331L1565 1340L1557 1331z"/><path style="fill:#888789; stroke:none;" d="M1496 1332L1496 1333L1502 1335L1502 1334L1496 1332M1502 1335L1502 1336L1527 1348L1527 1347L1502 1335M840 1338L854 1368L855 1368C852.851 1357.99 848.059 1344.64 840 1338M914 1343L910 1351L916 1343L914 1343z"/><path style="fill:#a4a2a5; stroke:none;" d="M1570 1346L1586 1364C1583.02 1357.49 1576.43 1349.25 1570 1346z"/><path style="fill:#706e71; stroke:none;" d="M1527 1348L1527 1349L1531 1350L1531 1349L1527 1348z"/><path style="fill:#888789; stroke:none;" d="M1528 1350L1528 1351L1537 1354L1528 1350M908 1351L895 1371L896 1371L910 1351L908 1351z"/><path style="fill:#a4a2a5; stroke:none;" d="M867 1352L878 1398L884.634 1386.29L895 1371C890.932 1371.31 887.929 1374.44 883.996 1374.56C872.89 1374.89 873.331 1358.16 867 1352z"/><path style="fill:#706e71; stroke:none;" d="M1537 1354L1537 1355L1545 1358L1545 1357L1537 1354z"/><path style="fill:#888789; stroke:none;" d="M868 1357C868.183 1367.87 874.096 1379.3 875.889 1390.03C876.548 1393.98 874.081 1399.95 879 1401C877.218 1386.9 876.052 1369.18 868 1357z"/><path style="fill:#706e71; stroke:none;" d="M1306 1358L1311 1371L1312 1371L1306 1358z"/><path style="fill:#a4a2a5; stroke:none;" d="M1544 1358L1544 1359L1551 1362L1544 1358z"/><path style="fill:#888789; stroke:none;" d="M1556 1364C1562.42 1371.21 1577.62 1378.98 1587 1381L1587 1380L1556 1364M1308 1367L1312 1380L1313 1380C1312.89 1374.73 1312.08 1370.56 1308 1367z"/><path style="fill:#706e71; stroke:none;" d="M856 1368L858 1374L859 1374L856 1368M910 1368C900.507 1385.03 884.514 1400.54 880 1420L881 1420L912 1368L910 1368z"/><path style="fill:#888789; stroke:none;" d="M860 1375C860.011 1390.89 863.545 1408.07 865.171 1424C865.78 1429.97 867.774 1433.53 874 1434L874 1433C866.131 1430.85 867.099 1423.8 866.286 1417C864.698 1403.73 865.898 1387.25 860 1375M884 1388L891 1379L884 1388M1587 1381L1587 1382C1594.05 1385.76 1598.71 1389.97 1607 1390L1604 1383L1606 1389C1601.08 1387.97 1597.19 1386.8 1595 1382L1587 1381z"/><path style="fill:#706e71; stroke:none;" d="M879 1420L878 1425L879 1425L879 1420z"/></svg>